<?xml version="1.0" encoding="UTF-8" standalone="no"?>
<!DOCTYPE svg PUBLIC "-//W3C//DTD SVG 1.1//EN" "http://www.w3.org/Graphics/SVG/1.1/DTD/svg11.dtd">
<svg version="1.1" xmlns="http://www.w3.org/2000/svg" xmlns:xlink="http://www.w3.org/1999/xlink" preserveAspectRatio="xMidYMid meet" viewBox="0 0 442 298.24" width="442" height="298.24"><defs><path d="M399 284.06C423.66 218.95 436.31 183.88 436.94 178.82C440.69 148.97 419.41 124.77 389.38 124.77C386.03 124.77 369.3 124.77 339.17 124.77" id="b8auRbjV8"></path><path d="M310.16 121.84L303.93 109.36C304.91 104.75 305.46 102.06 305.57 101.27C306.01 100.44 306.46 99.57 306.92 98.67C340.97 103.74 345.11 118 337.46 133.28C393.94 144.31 418.52 230.99 403.83 272.12C399.65 283.81 396.29 295.5 383.86 295.63" id="b31Q6mJ99c"></path><path d="M289.95 153.96C288.1 154.14 286.31 154.15 284.58 152.65C280.29 148.94 278.77 147.83 278.77 147.83C278.77 147.83 278.38 148.29 277.69 149.09C276.85 147.53 275.97 145.91 275.07 144.27C293.57 129.94 307.71 122.67 307.71 122.67C307.78 122.62 308.12 120.51 308.75 116.33C315.44 122.74 319.01 126.23 319.47 126.78C319.47 126.78 304.49 137.83 289.95 154.18C289.95 154.11 289.95 154.03 289.95 153.96Z" id="a2grDqtNAB"></path><path d="M200.5 289.48C200.5 289.48 230.11 209.84 226.35 185.16C224.29 171.7 227.51 156.43 231.96 144.64C232.53 144.67 235.36 144.86 240.45 145.19C246.54 159.59 249.93 167.6 250.6 169.2C249.94 169.36 249.28 169.5 248.61 169.59C248.61 169.59 249 172.11 249.96 177.9C250.61 181.76 249.5 182.19 248.63 184.87C247.5 186.67 246.64 188.7 247.59 191.83C247.9 192.86 248.64 202.51 250.32 215.6C247.2 222.23 244.22 229.22 241.43 236.64C223.48 284.54 225.34 289.76 225.34 289.76C220.38 289.71 205.47 289.54 200.5 289.48Z" id="baJiUBxUvj"></path><path d="M100.21 296.6C102.35 282.57 117.55 207.28 204.51 141.24C206.46 129.44 211.39 110.87 236.72 102.19" id="a2LCAO9Dm4"></path><path d="M219.29 180.97C219.29 180.97 220.23 206.41 214.66 224.69" id="cvMntBShP"></path><path d="M208.28 142.13C205.89 157.64 211.27 167.95 214.66 175.09C205.57 168.66 199.44 156.43 196.35 147.11C200.08 144.11 204.22 129.8 208.28 126.78C208 128.44 208.48 140.79 208.28 142.13Z" id="a1HN8u41FQ"></path><path d="M358.45 143.87C353.19 146.73 327.14 162.34 305.85 171.69C305.68 171.6 304.51 169.65 303.93 168.89C315.71 159.55 328.1 146.23 334.11 134.19C340.47 135.49 350.92 138.66 358.45 143.87Z" id="ehha8sIrn"></path><path d="M314.16 75.47C314.16 75.47 328.62 79.39 322.77 91.74C318.7 100.31 310.98 97.26 306.37 94.67" id="b53QcCFiWT"></path><path d="M266.51 126.78C271.36 126.78 275.96 125.97 279.59 124.54C291.36 119.89 293.86 116.89 298.09 109.83C302.31 102.76 315.55 75.77 315.55 75.77C314.72 75.5 308.12 73.28 307.3 73C304.3 74.81 275.62 33.78 252.94 27.75C252.94 27.75 228.75 63.33 235.18 100.27" id="flrwMFuoz"></path><path d="M329.75 62.04C333.65 55.4 332.03 47.19 325.57 42.39C320.16 38.37 315.01 39.43 315.01 39.43C315.01 39.43 324.32 31 316.98 20.1C314.38 16.24 310.11 13.51 305.17 12.54C293.11 10.19 286.87 18.36 286.87 18.36C286.87 18.36 279.94 -5.4 250.19 1.14C247.19 1.8 243.22 4.62 241.13 6.64C228.46 18.92 252.32 42.1 266.83 46.74C282.77 51.83 286.16 58.67 292.42 56.29C287.92 57.51 294.62 72.94 319.87 75C321.85 72.41 325.61 69.09 329.75 62.04Z" id="b2I9Tbxs8i"></path><path d="M256.05 68.51L248.75 87.93L256.25 87.9" id="h2GShL8zm4"></path><path d="M260.06 97.39C262.1 97.39 263.75 99.04 263.75 101.08C263.75 103.12 262.1 104.77 260.06 104.77C258.02 104.77 256.37 103.12 256.37 101.08C256.37 99.04 258.02 97.39 260.06 97.39Z" id="bko7iis7J"></path><path d="M246.16 66.43C245.72 68.18 246.28 69.83 247.41 70.11C248.54 70.4 249.82 69.21 250.25 67.45C250.69 65.7 250.13 64.05 249 63.77C247.87 63.49 246.59 64.68 246.16 66.43Z" id="hu1D7YKM"></path><path d="M265.97 71.02C265.53 72.77 266.09 74.42 267.23 74.7C268.36 74.98 269.63 73.79 270.07 72.04C270.51 70.29 269.94 68.64 268.81 68.36C267.68 68.07 266.41 69.27 265.97 71.02Z" id="a1geE7ZJJ8"></path><path d="M284.7 66.13C283.27 62.9 280.19 60.71 276.68 60.4" id="c1ee24yt5o"></path><path d="M253.2 53.39C253.2 53.39 247.88 50.49 245.3 54.78" id="cj9tb7JDI"></path><path d="M175.15 188.89C177.13 188.89 178.86 190.26 179.31 192.19C180.72 198.13 187.74 227.85 200.38 281.35C233.33 281.35 251.63 281.35 255.29 281.35C255.29 281.35 258.34 297.07 240.59 297.07C221.25 297.07 66.51 297.07 47.17 297.07C45.18 297.07 43.46 295.7 43 293.77C40.65 283.81 21.82 204.12 19.47 194.16C18.93 191.86 20.35 189.55 22.66 189.01C22.98 188.93 23.31 188.89 23.65 188.89C53.95 188.89 160 188.89 175.15 188.89Z" id="b4iZMaZ4xr"></path><path d="M83.75 49.92C82.45 49.92 81.8 50.57 81.8 51.86C81.8 53.71 81.8 54.73 81.8 54.94C81.8 56.24 82.45 56.89 83.75 56.89C84.46 56.89 84.86 56.89 84.94 56.89C86.24 56.89 86.89 56.24 86.89 54.94C86.89 53.09 86.89 52.07 86.89 51.86C86.89 50.57 86.24 49.92 84.94 49.92C84.22 49.92 83.83 49.92 83.75 49.92Z" id="b2RDsxnsPO"></path><path d="M90.79 49.92C89.49 49.92 88.84 50.57 88.84 51.86C88.84 53.71 88.84 54.73 88.84 54.94C88.84 56.24 89.49 56.89 90.79 56.89C109.45 56.89 119.81 56.89 121.89 56.89C123.19 56.89 123.84 56.24 123.84 54.94C123.84 53.09 123.84 52.07 123.84 51.86C123.84 50.57 123.19 49.92 121.89 49.92C103.23 49.92 92.87 49.92 90.79 49.92Z" id="b4Rn2GdiP"></path><path d="M87.63 82.3C86.33 82.3 85.68 82.95 85.68 84.24C85.68 86.09 85.68 87.11 85.68 87.32C85.68 88.62 86.33 89.27 87.63 89.27C108.18 89.27 119.6 89.27 121.89 89.27C123.19 89.27 123.84 88.62 123.84 87.32C123.84 85.47 123.84 84.45 123.84 84.24C123.84 82.95 123.19 82.3 121.89 82.3C101.33 82.3 89.91 82.3 87.63 82.3Z" id="c8b0qubBQ"></path><path d="M56.95 71.51C55.65 71.51 55 72.16 55 73.46C55 75.31 55 76.33 55 76.54C55 77.84 55.65 78.49 56.95 78.49C90.12 78.49 108.55 78.49 112.24 78.49C113.54 78.49 114.19 77.84 114.19 76.54C114.19 74.69 114.19 73.67 114.19 73.46C114.19 72.16 113.54 71.51 112.24 71.51C79.07 71.51 60.64 71.51 56.95 71.51Z" id="a1PFbsefdN"></path><path d="M21.67 71.51C20.37 71.51 19.72 72.16 19.72 73.46C19.72 75.31 19.72 76.33 19.72 76.54C19.72 77.84 20.37 78.49 21.67 78.49C38.51 78.49 47.87 78.49 49.74 78.49C51.04 78.49 51.69 77.84 51.69 76.54C51.69 74.69 51.69 73.67 51.69 73.46C51.69 72.16 51.04 71.51 49.74 71.51C32.9 71.51 23.54 71.51 21.67 71.51Z" id="g7jCC3Mt5V"></path><path d="M10.85 60.74C9.55 60.74 8.9 61.39 8.9 62.68C8.9 64.53 8.9 65.55 8.9 65.76C8.9 67.06 9.55 67.71 10.85 67.71C11.57 67.71 11.96 67.71 12.04 67.71C13.34 67.71 13.99 67.06 13.99 65.76C13.99 63.91 13.99 62.89 13.99 62.68C13.99 61.39 13.34 60.74 12.04 60.74C11.33 60.74 10.93 60.74 10.85 60.74Z" id="czVDZGr5p"></path><path d="M64.58 60.72C63.29 60.72 62.64 61.37 62.64 62.67C62.64 64.51 62.64 65.53 62.64 65.74C62.64 67.04 63.29 67.69 64.58 67.69C98.97 67.69 118.07 67.69 121.89 67.69C123.19 67.69 123.84 67.04 123.84 65.74C123.84 63.9 123.84 62.87 123.84 62.67C123.84 61.37 123.19 60.72 121.89 60.72C87.51 60.72 68.4 60.72 64.58 60.72Z" id="b1WX8To6iu"></path><path d="M46.51 49.92C45.21 49.92 44.56 50.57 44.56 51.86C44.56 53.71 44.56 54.73 44.56 54.94C44.56 56.24 45.21 56.89 46.51 56.89C65.17 56.89 75.53 56.89 77.61 56.89C78.91 56.89 79.56 56.24 79.56 54.94C79.56 53.09 79.56 52.07 79.56 51.86C79.56 50.57 78.91 49.92 77.61 49.92C58.95 49.92 48.59 49.92 46.51 49.92Z" id="aFvzzLvbM"></path><path d="M18.68 60.69C17.38 60.69 16.73 61.34 16.73 62.64C16.73 64.51 16.73 65.55 16.73 65.76C16.73 67.06 17.38 67.71 18.68 67.71C42.24 67.71 55.33 67.71 57.95 67.71C59.25 67.71 59.9 67.06 59.9 65.76C59.9 63.89 59.9 62.85 59.9 62.64C59.9 61.34 59.25 60.69 57.95 60.69C34.38 60.69 21.29 60.69 18.68 60.69Z" id="e4gLc6FFc"></path><path d="M90.79 119.81C89.49 119.81 88.84 120.46 88.84 121.76C88.84 123.6 88.84 124.63 88.84 124.83C88.84 126.13 89.49 126.78 90.79 126.78C109.45 126.78 119.81 126.78 121.89 126.78C123.19 126.78 123.84 126.13 123.84 124.83C123.84 122.99 123.84 121.96 123.84 121.76C123.84 120.46 123.19 119.81 121.89 119.81C103.23 119.81 92.87 119.81 90.79 119.81Z" id="c5on07amtu"></path><path d="M87.63 152.19C86.33 152.19 85.68 152.84 85.68 154.14C85.68 155.98 85.68 157.01 85.68 157.21C85.68 158.51 86.33 159.16 87.63 159.16C108.18 159.16 119.6 159.16 121.89 159.16C123.19 159.16 123.84 158.51 123.84 157.21C123.84 155.37 123.84 154.34 123.84 154.14C123.84 152.84 123.19 152.19 121.89 152.19C101.33 152.19 89.91 152.19 87.63 152.19Z" id="bXYqHlax5"></path><path d="M56.95 141.41C55.65 141.41 55 142.06 55 143.36C55 145.2 55 146.23 55 146.43C55 147.73 55.65 148.38 56.95 148.38C90.12 148.38 108.55 148.38 112.24 148.38C113.54 148.38 114.19 147.73 114.19 146.43C114.19 144.59 114.19 143.56 114.19 143.36C114.19 142.06 113.54 141.41 112.24 141.41C79.07 141.41 60.64 141.41 56.95 141.41Z" id="f60w4uq33Y"></path><path d="M21.67 141.41C20.37 141.41 19.72 142.06 19.72 143.36C19.72 145.2 19.72 146.23 19.72 146.43C19.72 147.73 20.37 148.38 21.67 148.38C38.51 148.38 47.87 148.38 49.74 148.38C51.04 148.38 51.69 147.73 51.69 146.43C51.69 144.59 51.69 143.56 51.69 143.36C51.69 142.06 51.04 141.41 49.74 141.41C32.9 141.41 23.54 141.41 21.67 141.41Z" id="b2BfODTGEg"></path><path d="M10.85 130.63C9.55 130.63 8.9 131.28 8.9 132.58C8.9 134.42 8.9 135.45 8.9 135.65C8.9 136.95 9.55 137.6 10.85 137.6C11.57 137.6 11.96 137.6 12.04 137.6C13.34 137.6 13.99 136.95 13.99 135.65C13.99 133.81 13.99 132.78 13.99 132.58C13.99 131.28 13.34 130.63 12.04 130.63C11.33 130.63 10.93 130.63 10.85 130.63Z" id="awmmEV1rQ"></path><path d="M1.95 119.81C0.65 119.81 0 120.46 0 121.76C0 123.6 0 124.63 0 124.83C0 126.13 0.65 126.78 1.95 126.78C2.67 126.78 3.06 126.78 3.14 126.78C4.44 126.78 5.09 126.13 5.09 124.83C5.09 122.99 5.09 121.96 5.09 121.76C5.09 120.46 4.44 119.81 3.14 119.81C2.43 119.81 2.03 119.81 1.95 119.81Z" id="a15DJ3yp6E"></path><path d="M64.58 130.63C63.29 130.63 62.64 131.28 62.64 132.58C62.64 134.42 62.64 135.45 62.64 135.65C62.64 136.95 63.29 137.6 64.58 137.6C98.97 137.6 118.07 137.6 121.89 137.6C123.19 137.6 123.84 136.95 123.84 135.65C123.84 133.81 123.84 132.78 123.84 132.58C123.84 131.28 123.19 130.63 121.89 130.63C87.51 130.63 68.4 130.63 64.58 130.63Z" id="c3BfdzvnVD"></path><path d="M46.51 119.81C45.21 119.81 44.56 120.46 44.56 121.76C44.56 123.6 44.56 124.63 44.56 124.83C44.56 126.13 45.21 126.78 46.51 126.78C69.57 126.78 82.38 126.78 84.94 126.78C86.24 126.78 86.89 126.13 86.89 124.83C86.89 122.99 86.89 121.96 86.89 121.76C86.89 120.46 86.24 119.81 84.94 119.81C61.88 119.81 49.07 119.81 46.51 119.81Z" id="c9tAg3tAl"></path><path d="M8.83 119.81C7.53 119.81 6.88 120.46 6.88 121.76C6.88 123.6 6.88 124.63 6.88 124.83C6.88 126.13 7.53 126.78 8.83 126.78C27.48 126.78 37.85 126.78 39.92 126.78C41.22 126.78 41.87 126.13 41.87 124.83C41.87 122.99 41.87 121.96 41.87 121.76C41.87 120.46 41.22 119.81 39.92 119.81C21.26 119.81 10.9 119.81 8.83 119.81Z" id="b2IbaVDvtl"></path><path d="M83.75 109.36C82.45 109.36 81.8 110.01 81.8 111.31C81.8 113.15 81.8 114.18 81.8 114.38C81.8 115.68 82.45 116.33 83.75 116.33C84.46 116.33 84.86 116.33 84.94 116.33C86.24 116.33 86.89 115.68 86.89 114.38C86.89 112.54 86.89 111.51 86.89 111.31C86.89 110.01 86.24 109.36 84.94 109.36C84.22 109.36 83.83 109.36 83.75 109.36Z" id="bP5WViFEv"></path><path d="M90.79 109.36C89.49 109.36 88.84 110.01 88.84 111.31C88.84 113.15 88.84 114.18 88.84 114.38C88.84 115.68 89.49 116.33 90.79 116.33C109.45 116.33 119.81 116.33 121.89 116.33C123.19 116.33 123.84 115.68 123.84 114.38C123.84 112.54 123.84 111.51 123.84 111.31C123.84 110.01 123.19 109.36 121.89 109.36C103.23 109.36 92.87 109.36 90.79 109.36Z" id="c1gIGmu34b"></path><path d="M46.51 109.36C45.21 109.36 44.56 110.01 44.56 111.31C44.56 113.15 44.56 114.18 44.56 114.38C44.56 115.68 45.21 116.33 46.51 116.33C65.17 116.33 75.53 116.33 77.61 116.33C78.91 116.33 79.56 115.68 79.56 114.38C79.56 112.54 79.56 111.51 79.56 111.31C79.56 110.01 78.91 109.36 77.61 109.36C58.95 109.36 48.59 109.36 46.51 109.36Z" id="fgEI1NJDH"></path><path d="M18.68 130.59C17.38 130.59 16.73 131.24 16.73 132.54C16.73 134.41 16.73 135.45 16.73 135.66C16.73 136.95 17.38 137.6 18.68 137.6C42.24 137.6 55.33 137.6 57.95 137.6C59.25 137.6 59.9 136.95 59.9 135.66C59.9 133.79 59.9 132.75 59.9 132.54C59.9 131.24 59.25 130.59 57.95 130.59C34.38 130.59 21.29 130.59 18.68 130.59Z" id="c2UkANPTx"></path><path d="M267.49 130.55C267.33 125.52 267.41 117.59 269.2 114.12C272.04 108.63 269.39 102.76 263.58 108.76C260.27 112.18 258.64 116.72 257.86 119.99" id="f1vvkrzthA"></path><path d="M218.44 102.15C224.05 102.15 228.59 106.7 228.59 112.31C228.59 117.92 224.05 122.47 218.44 122.47C212.83 122.47 208.28 117.92 208.28 112.31C208.28 106.7 212.83 102.15 218.44 102.15Z" id="b2oJHS9hY1"></path><path d="M385.87 295.63C317.51 297.37 283.34 298.24 283.34 298.24C253.64 296.02 247.74 195.28 246.71 191.84C244.65 185.04 251.12 183.45 250.27 178.07C249.42 172.68 250.08 170.27 250.08 170.27C264.02 168 277.55 150.48 277.55 150.48C277.55 150.48 278.96 151.5 282.95 154.92C286.94 158.33 291.4 153.08 295.96 158.31C298.97 161.8 331.75 216.83 331.75 216.83" id="cfYLe0VoR"></path><path d="M248.61 169.59C263.46 167.31 278.76 148.59 278.76 148.59C278.76 148.59 280.27 149.71 284.57 153.42C286.3 154.92 288.08 154.9 289.94 154.73C291.25 170.98 262.1 185.45 248.29 186.13C249.17 182.22 250.69 182.31 249.96 177.91C249 172.11 248.88 171.25 248.61 169.59Z" id="bqQ3cGJ51"></path><path d="M351.94 207.6C351.94 207.6 334.37 192.43 324.16 201.99" id="b4iZLevNrn"></path><path d="M255.1 179.83C246.26 158.92 241.35 147.31 240.37 144.99C226.15 145.01 226.21 137.29 229.19 137.02C232.16 136.76 246.46 138.77 246.46 138.77C246.46 138.77 246 137.72 234.38 135.52C222.77 133.31 224.95 126.84 227.44 126.67C229.94 126.49 248.4 131.12 248.4 131.12C246.81 130.55 234.13 126.02 232.54 125.45C226.9 123.66 226.7 118.19 229.65 117.42C231.59 116.91 241.98 120.05 250.2 122.93C250.2 122.93 240.32 117.86 235.64 114.8C230.95 111.73 234.22 107.74 236.96 107.99C239.7 108.24 258.73 120.97 262.36 124.12C265.98 127.27 284.54 162.71 284.54 162.71C280.62 165 270.81 170.7 255.1 179.83Z" id="awT8vuSzU"></path><path d="M220.74 98.67L263.75 101.46C262.87 115.01 262.38 122.53 262.28 124.04C258.46 120.77 239.68 108.23 236.98 107.98C234.27 107.74 230.96 111.73 235.65 114.79C240.33 117.85 250.22 122.92 250.22 122.92C241.99 120.04 231.59 116.9 229.66 117.41C226.7 118.19 226.91 123.65 232.55 125.45C234.14 126.01 246.83 130.54 248.41 131.11C248.41 131.11 229.95 126.48 227.46 126.66C227.46 126.66 222.78 133.31 234.39 135.51C234.39 135.51 246.47 138.76 246.47 138.76C246.47 138.76 232.17 136.75 229.2 137.02C229.2 137.02 226.16 145 240.38 144.98C240.38 144.99 240.41 145.06 240.46 145.17C233.89 144.75 230.23 144.51 229.5 144.46C223.06 144.05 218.17 138.5 218.58 132.05C218.58 132.05 218.58 132.04 218.58 132.04C218.87 127.59 219.59 116.47 220.74 98.67Z" id="d3C40C3KZ"></path></defs><g><g><g><use xlink:href="#b8auRbjV8" opacity="1" fill="#000000" fill-opacity="0"></use><g><use xlink:href="#b8auRbjV8" opacity="1" fill-opacity="0" stroke="#000000" stroke-width="6" stroke-opacity="1"></use></g></g><g><use xlink:href="#b31Q6mJ99c" opacity="1" fill="#000000" fill-opacity="0"></use><g><use xlink:href="#b31Q6mJ99c" opacity="1" fill-opacity="0" stroke="#000000" stroke-width="6" stroke-opacity="1"></use></g></g><g><use xlink:href="#a2grDqtNAB" opacity="1" fill="#000000" fill-opacity="1"></use><g><use xlink:href="#a2grDqtNAB" opacity="1" fill-opacity="0" stroke="#000000" stroke-width="1" stroke-opacity="0"></use></g></g><g><use xlink:href="#baJiUBxUvj" opacity="1" fill="#000000" fill-opacity="1"></use><g><use xlink:href="#baJiUBxUvj" opacity="1" fill-opacity="0" stroke="#000000" stroke-width="1" stroke-opacity="0"></use></g></g><g><use xlink:href="#a2LCAO9Dm4" opacity="1" fill="#000000" fill-opacity="0"></use><g><use xlink:href="#a2LCAO9Dm4" opacity="1" fill-opacity="0" stroke="#000000" stroke-width="6" stroke-opacity="1"></use></g></g><g><use xlink:href="#cvMntBShP" opacity="1" fill="#000000" fill-opacity="0"></use><g><use xlink:href="#cvMntBShP" opacity="1" fill-opacity="0" stroke="#000000" stroke-width="8" stroke-opacity="1"></use></g></g><g><use xlink:href="#a1HN8u41FQ" opacity="1" fill="#000000" fill-opacity="1"></use><g><use xlink:href="#a1HN8u41FQ" opacity="1" fill-opacity="0" stroke="#000000" stroke-width="1" stroke-opacity="0"></use></g></g><g><use xlink:href="#ehha8sIrn" opacity="1" fill="#000000" fill-opacity="1"></use><g><use xlink:href="#ehha8sIrn" opacity="1" fill-opacity="0" stroke="#000000" stroke-width="1" stroke-opacity="0"></use></g></g><g><use xlink:href="#b53QcCFiWT" opacity="1" fill="#000000" fill-opacity="0"></use><g><use xlink:href="#b53QcCFiWT" opacity="1" fill-opacity="0" stroke="#000000" stroke-width="6" stroke-opacity="1"></use></g></g><g><use xlink:href="#flrwMFuoz" opacity="1" fill="#000000" fill-opacity="0"></use><g><use xlink:href="#flrwMFuoz" opacity="1" fill-opacity="0" stroke="#000000" stroke-width="6" stroke-opacity="1"></use></g></g><g><use xlink:href="#b2I9Tbxs8i" opacity="1" fill="#000000" fill-opacity="1"></use><g><use xlink:href="#b2I9Tbxs8i" opacity="1" fill-opacity="0" stroke="#000000" stroke-width="1" stroke-opacity="0"></use></g></g><g><use xlink:href="#h2GShL8zm4" opacity="1" fill="#000000" fill-opacity="0"></use><g><use xlink:href="#h2GShL8zm4" opacity="1" fill-opacity="0" stroke="#000000" stroke-width="8" stroke-opacity="1"></use></g></g><g><use xlink:href="#bko7iis7J" opacity="1" fill="#000000" fill-opacity="1"></use><g><use xlink:href="#bko7iis7J" opacity="1" fill-opacity="0" stroke="#000000" stroke-width="1" stroke-opacity="0"></use></g></g><g><use xlink:href="#hu1D7YKM" opacity="1" fill="#000000" fill-opacity="1"></use><g><use xlink:href="#hu1D7YKM" opacity="1" fill-opacity="0" stroke="#000000" stroke-width="1" stroke-opacity="0"></use></g></g><g><use xlink:href="#a1geE7ZJJ8" opacity="1" fill="#000000" fill-opacity="1"></use><g><use xlink:href="#a1geE7ZJJ8" opacity="1" fill-opacity="0" stroke="#000000" stroke-width="1" stroke-opacity="0"></use></g></g><g><use xlink:href="#c1ee24yt5o" opacity="1" fill="#000000" fill-opacity="0"></use><g><use xlink:href="#c1ee24yt5o" opacity="1" fill-opacity="0" stroke="#000000" stroke-width="8" stroke-opacity="1"></use></g></g><g><use xlink:href="#cj9tb7JDI" opacity="1" fill="#000000" fill-opacity="0"></use><g><use xlink:href="#cj9tb7JDI" opacity="1" fill-opacity="0" stroke="#000000" stroke-width="8" stroke-opacity="1"></use></g></g><g><use xlink:href="#b4iZMaZ4xr" opacity="1" fill="#000000" fill-opacity="1"></use><g><use xlink:href="#b4iZMaZ4xr" opacity="1" fill-opacity="0" stroke="#000000" stroke-width="1" stroke-opacity="0"></use></g></g><g><use xlink:href="#b2RDsxnsPO" opacity="1" fill="#645dc7" fill-opacity="1"></use><g><use xlink:href="#b2RDsxnsPO" opacity="1" fill-opacity="0" stroke="#000000" stroke-width="1" stroke-opacity="0"></use></g></g><g><use xlink:href="#b4Rn2GdiP" opacity="1" fill="#645dc7" fill-opacity="1"></use><g><use xlink:href="#b4Rn2GdiP" opacity="1" fill-opacity="0" stroke="#000000" stroke-width="1" stroke-opacity="0"></use></g></g><g><use xlink:href="#c8b0qubBQ" opacity="1" fill="#ff7175" fill-opacity="1"></use><g><use xlink:href="#c8b0qubBQ" opacity="1" fill-opacity="0" stroke="#000000" stroke-width="1" stroke-opacity="0"></use></g></g><g><use xlink:href="#a1PFbsefdN" opacity="1" fill="#a5a4e0" fill-opacity="1"></use><g><use xlink:href="#a1PFbsefdN" opacity="1" fill-opacity="0" stroke="#000000" stroke-width="1" stroke-opacity="0"></use></g></g><g><use xlink:href="#g7jCC3Mt5V" opacity="1" fill="#f79fc9" fill-opacity="1"></use><g><use xlink:href="#g7jCC3Mt5V" opacity="1" fill-opacity="0" stroke="#000000" stroke-width="1" stroke-opacity="0"></use></g></g><g><use xlink:href="#czVDZGr5p" opacity="1" fill="#a7a3de" fill-opacity="1"></use><g><use xlink:href="#czVDZGr5p" opacity="1" fill-opacity="0" stroke="#000000" stroke-width="1" stroke-opacity="0"></use></g></g><g><use xlink:href="#b1WX8To6iu" opacity="1" fill="#f9a583" fill-opacity="1"></use><g><use xlink:href="#b1WX8To6iu" opacity="1" fill-opacity="0" stroke="#000000" stroke-width="1" stroke-opacity="0"></use></g></g><g><use xlink:href="#aFvzzLvbM" opacity="1" fill="#645dc7" fill-opacity="1"></use><g><use xlink:href="#aFvzzLvbM" opacity="1" fill-opacity="0" stroke="#000000" stroke-width="1" stroke-opacity="0"></use></g></g><g><use xlink:href="#e4gLc6FFc" opacity="1" fill="#03b486" fill-opacity="1"></use><g><use xlink:href="#e4gLc6FFc" opacity="1" fill-opacity="0" stroke="#000000" stroke-width="1" stroke-opacity="0"></use></g></g><g><use xlink:href="#c5on07amtu" opacity="1" fill="#03b486" fill-opacity="1"></use><g><use xlink:href="#c5on07amtu" opacity="1" fill-opacity="0" stroke="#000000" stroke-width="1" stroke-opacity="0"></use></g></g><g><use xlink:href="#bXYqHlax5" opacity="1" fill="#ff7175" fill-opacity="1"></use><g><use xlink:href="#bXYqHlax5" opacity="1" fill-opacity="0" stroke="#000000" stroke-width="1" stroke-opacity="0"></use></g></g><g><use xlink:href="#f60w4uq33Y" opacity="1" fill="#a5a4e0" fill-opacity="1"></use><g><use xlink:href="#f60w4uq33Y" opacity="1" fill-opacity="0" stroke="#000000" stroke-width="1" stroke-opacity="0"></use></g></g><g><use xlink:href="#b2BfODTGEg" opacity="1" fill="#f79fc9" fill-opacity="1"></use><g><use xlink:href="#b2BfODTGEg" opacity="1" fill-opacity="0" stroke="#000000" stroke-width="1" stroke-opacity="0"></use></g></g><g><use xlink:href="#awmmEV1rQ" opacity="1" fill="#a7a3de" fill-opacity="1"></use><g><use xlink:href="#awmmEV1rQ" opacity="1" fill-opacity="0" stroke="#000000" stroke-width="1" stroke-opacity="0"></use></g></g><g><use xlink:href="#a15DJ3yp6E" opacity="1" fill="#a7a3de" fill-opacity="1"></use><g><use xlink:href="#a15DJ3yp6E" opacity="1" fill-opacity="0" stroke="#000000" stroke-width="1" stroke-opacity="0"></use></g></g><g><use xlink:href="#c3BfdzvnVD" opacity="1" fill="#f9a583" fill-opacity="1"></use><g><use xlink:href="#c3BfdzvnVD" opacity="1" fill-opacity="0" stroke="#000000" stroke-width="1" stroke-opacity="0"></use></g></g><g><use xlink:href="#c9tAg3tAl" opacity="1" fill="#ff7175" fill-opacity="1"></use><g><use xlink:href="#c9tAg3tAl" opacity="1" fill-opacity="0" stroke="#000000" stroke-width="1" stroke-opacity="0"></use></g></g><g><use xlink:href="#b2IbaVDvtl" opacity="1" fill="#f79fc9" fill-opacity="1"></use><g><use xlink:href="#b2IbaVDvtl" opacity="1" fill-opacity="0" stroke="#000000" stroke-width="1" stroke-opacity="0"></use></g></g><g><use xlink:href="#bP5WViFEv" opacity="1" fill="#645dc7" fill-opacity="1"></use><g><use xlink:href="#bP5WViFEv" opacity="1" fill-opacity="0" stroke="#000000" stroke-width="1" stroke-opacity="0"></use></g></g><g><use xlink:href="#c1gIGmu34b" opacity="1" fill="#645dc7" fill-opacity="1"></use><g><use xlink:href="#c1gIGmu34b" opacity="1" fill-opacity="0" stroke="#000000" stroke-width="1" stroke-opacity="0"></use></g></g><g><use xlink:href="#fgEI1NJDH" opacity="1" fill="#645dc7" fill-opacity="1"></use><g><use xlink:href="#fgEI1NJDH" opacity="1" fill-opacity="0" stroke="#000000" stroke-width="1" stroke-opacity="0"></use></g></g><g><use xlink:href="#c2UkANPTx" opacity="1" fill="#03b486" fill-opacity="1"></use><g><use xlink:href="#c2UkANPTx" opacity="1" fill-opacity="0" stroke="#000000" stroke-width="1" stroke-opacity="0"></use></g></g><g><use xlink:href="#f1vvkrzthA" opacity="1" fill="#000000" fill-opacity="0"></use><g><use xlink:href="#f1vvkrzthA" opacity="1" fill-opacity="0" stroke="#000000" stroke-width="6" stroke-opacity="1"></use></g></g><g><use xlink:href="#b2oJHS9hY1" opacity="1" fill="#000000" fill-opacity="0"></use><g><use xlink:href="#b2oJHS9hY1" opacity="1" fill-opacity="0" stroke="#000000" stroke-width="6" stroke-opacity="1"></use></g></g><g><use xlink:href="#cfYLe0VoR" opacity="1" fill="#000000" fill-opacity="0"></use><g><use xlink:href="#cfYLe0VoR" opacity="1" fill-opacity="0" stroke="#000000" stroke-width="6" stroke-opacity="1"></use></g></g><g><use xlink:href="#bqQ3cGJ51" opacity="1" fill="#000000" fill-opacity="1"></use><g><use xlink:href="#bqQ3cGJ51" opacity="1" fill-opacity="0" stroke="#000000" stroke-width="1" stroke-opacity="0"></use></g></g><g><use xlink:href="#b4iZLevNrn" opacity="1" fill="#000000" fill-opacity="0"></use><g><use xlink:href="#b4iZLevNrn" opacity="1" fill-opacity="0" stroke="#000000" stroke-width="6" stroke-opacity="1"></use></g></g><g><use xlink:href="#awT8vuSzU" opacity="1" fill="#000000" fill-opacity="0"></use><g><use xlink:href="#awT8vuSzU" opacity="1" fill-opacity="0" stroke="#000000" stroke-width="6" stroke-opacity="1"></use></g></g><g><use xlink:href="#d3C40C3KZ" opacity="1" fill="#000000" fill-opacity="1"></use><g><use xlink:href="#d3C40C3KZ" opacity="1" fill-opacity="0" stroke="#000000" stroke-width="1" stroke-opacity="0"></use></g></g></g></g></svg>