<?xml version="1.0" encoding="UTF-8" standalone="no"?>
<!DOCTYPE svg PUBLIC "-//W3C//DTD SVG 1.1//EN" "http://www.w3.org/Graphics/SVG/1.1/DTD/svg11.dtd">
<svg version="1.1" xmlns="http://www.w3.org/2000/svg" xmlns:xlink="http://www.w3.org/1999/xlink" preserveAspectRatio="xMidYMid meet" viewBox="0 0 449.5 274.21" width="449.5" height="274.21"><defs><path d="M175.45 136.72C90.57 136.72 43.41 136.72 33.97 136.72C15.21 136.72 0 151.93 0 170.69C0 170.69 0 170.69 0 170.69C0 177.65 0 233.29 0 240.24C0 259.01 15.21 274.21 33.97 274.21C33.97 274.21 33.97 274.21 33.97 274.21C43.41 274.21 90.57 274.21 175.45 274.21L175.45 136.72Z" id="aGDZrIexU"></path><path d="M172.57 147.49C106.1 147.49 69.17 147.49 61.79 147.49C55.78 147.49 50.9 152.37 50.9 158.38C50.9 167.85 50.9 243.65 50.9 253.12C50.9 259.13 55.78 264.01 61.79 264.01C61.79 264.01 61.79 264.01 61.79 264.01C69.17 264.01 106.1 264.01 172.57 264.01L172.57 147.49Z" id="b3R3wepIru"></path><path d="M71.14 156.36C67.08 156.37 63.79 159.66 63.79 163.72C63.79 172.13 63.79 239.37 63.79 247.77C63.79 251.84 67.08 255.13 71.14 255.13C77.62 255.13 110.05 255.13 168.42 255.13L168.42 156.36C116.54 156.36 84.11 156.36 71.14 156.36Z" id="e4jBtSg7q3"></path><path d="M27.34 164.73C20.58 164.73 15.11 170.2 15.11 176.96C15.11 183.71 20.58 189.18 27.34 189.18C34.09 189.18 39.57 183.71 39.57 176.96C39.57 170.2 34.09 164.73 27.34 164.73Z" id="g6WygUFp2"></path><path d="M27.34 167.43C22.81 167.43 19.13 171.1 19.13 175.63C19.13 180.16 22.81 183.84 27.34 183.84C31.87 183.84 35.54 180.16 35.54 175.63C35.54 171.1 31.87 167.43 27.34 167.43Z" id="clBpw25qm"></path><path d="M32.38 214.59L32.38 204.76L22.62 204.76L22.62 214.59L12.79 214.59L12.79 224.35L22.62 224.35L22.62 234.18L32.38 234.18L32.38 224.35L42.22 224.35L42.22 214.59L42.22 214.59L32.38 214.59Z" id="b4gjcEwCT"></path><path d="M41.58 246.63C41.58 246.63 41.58 246.63 41.58 246.63C41.58 252.23 41.58 255.35 41.58 255.97C41.58 255.97 41.58 255.97 41.58 255.97C35.98 255.97 32.87 255.97 32.25 255.97C32.25 255.97 32.25 255.97 32.25 255.97C32.25 250.37 32.25 247.26 32.25 246.63C32.25 246.63 32.25 246.63 32.25 246.63C37.85 246.63 40.96 246.63 41.58 246.63Z" id="b12HXQcHe4"></path><path d="M38.6 152.37C39.73 152.37 40.3 152.94 40.3 154.07C40.3 154.07 40.3 154.07 40.3 154.07C40.3 155.2 39.73 155.77 38.6 155.77C35.81 155.77 34.26 155.77 33.95 155.77C32.81 155.77 32.25 155.2 32.25 154.07C32.25 154.07 32.25 154.07 32.25 154.07C32.25 152.94 32.81 152.37 33.95 152.37C36.74 152.37 38.29 152.37 38.6 152.37Z" id="gcNnmp9Kl"></path><path d="M310.46 208.93C315.12 207.64 329.11 208.45 329.11 208.45C329.11 208.45 330.88 219.54 342.24 223.61C368.81 232.56 377.66 214.56 377.66 214.56C379.38 220.55 403.54 276.77 430.55 273.56C457.56 270.34 454.34 196.61 429.48 145.81C404.62 95 370.53 110.22 358.32 112.79C346.1 115.36 330.66 116.81 318.45 116.65C313.5 116.67 308.55 116.31 303.66 115.57C305.02 134.25 309.1 190.26 310.46 208.93Z" id="dqb6EvPia"></path><path d="M430.53 273.56C447.57 271.53 452.58 241.43 447.71 206.73C435.66 204.11 423.96 220.9 417.35 233.04C412.4 242.16 409.27 255.12 407.66 263.49C414.69 270.19 422.48 274.51 430.53 273.56Z" id="d2yR83btjh"></path><path d="M373.62 185.45C373.62 193.7 366.35 200.4 357.39 200.4C348.42 200.4 341.15 193.7 341.15 185.45C341.15 177.19 348.42 170.49 357.39 170.49C366.35 170.49 373.62 177.19 373.62 185.45Z" id="clcn6f65z"></path><path d="M373.62 182.38C373.62 190.64 366.35 197.33 357.39 197.33C348.42 197.33 341.15 190.64 341.15 182.38C341.15 174.12 348.42 167.43 357.39 167.43C366.35 167.43 373.62 174.12 373.62 182.38Z" id="anP9DhC3F"></path><path d="M397.52 160.79C397.52 164.57 393.56 167.64 388.68 167.64C383.8 167.64 379.84 164.57 379.84 160.79C379.84 157.01 383.8 153.94 388.68 153.94C393.56 153.94 397.52 157.01 397.52 160.79Z" id="dpVLYNTgk"></path><path d="M377.09 143.5C377.09 147.28 373.13 150.35 368.24 150.35C363.36 150.35 359.4 147.28 359.4 143.5C359.4 139.72 363.36 136.65 368.24 136.65C373.13 136.65 377.09 139.72 377.09 143.5Z" id="c1gGjvIGsq"></path><path d="M397.52 127.23C397.52 131.01 393.56 134.08 388.68 134.08C383.8 134.08 379.84 131.01 379.84 127.23C379.84 123.45 383.8 120.38 388.68 120.38C393.56 120.38 397.52 123.45 397.52 127.23Z" id="c5Giy6yiO"></path><path d="M417.17 144.48C417.17 148.26 413.21 151.33 408.33 151.33C403.44 151.33 399.49 148.26 399.49 144.48C399.49 140.69 403.44 137.63 408.33 137.63C413.21 137.63 417.17 140.69 417.17 144.48Z" id="eaSoWbgNC"></path><path d="M330.86 133.69C330.86 139.11 325.89 143.5 319.77 143.5C313.64 143.5 308.67 139.11 308.67 133.69C308.67 128.28 313.64 123.89 319.77 123.89C325.89 123.89 330.86 128.28 330.86 133.69Z" id="bzruJ3v2"></path><path d="M334.83 133.69C334.83 141.05 328.08 147.01 319.77 147.01C311.45 147.01 304.71 141.05 304.71 133.69C304.71 126.34 311.45 120.38 319.77 120.38C328.08 120.38 334.83 126.34 334.83 133.69Z" id="j2VZs3laq0"></path><path d="M345.02 164.5C352.35 160.26 356.09 155.06 352.84 143.51C349.58 131.95 363.09 110.79 389.47 110.63C415.86 110.47 434.23 134.23 430 150.18C425.77 166.13 410.96 171.83 399.08 174.43C388.98 178.5 386.54 187.29 386.21 191.52C385.89 195.75 379.27 212.03 355.29 210.89C335.64 209.64 330.86 191.52 330.86 191.52C333.69 186.12 325.17 174.11 345.02 164.5Z" id="a1ks2n0CjG"></path><path d="M329.12 208.16L329.12 192.18L310.47 192.18" id="a1WBOdYZ3O"></path><path d="M377.09 213.33L377.09 204.76" id="d3J0dYlpjt"></path><path d="M158.82 274.06C239.56 274.06 284.41 274.06 293.38 274.06C293.38 274.06 320.43 272.17 320.43 238.9C320.43 216.05 320.43 33.24 320.43 10.39C320.43 4.65 316.45 0 311.59 0C297.2 0 182.07 0 167.68 0C162.79 0 158.82 4.65 158.82 10.39C158.82 45.55 158.82 133.44 158.82 274.06Z" id="eEan2Laet"></path><path d="M320.43 14.94L306.05 14.94C306.05 10.53 306.05 8.08 306.05 7.59C306.07 4.86 305.22 2.2 303.62 0C303.32 0 300.91 0 300.61 0C302.54 1.71 303.8 4.49 303.8 7.59C303.8 8.08 303.8 10.53 303.8 14.94L286.8 14.94L286.8 0L284.55 0L284.55 14.94L178.12 14.94L178.12 0L175.88 0L175.88 14.94L158.82 14.94L158.82 17.19L303.8 17.19C303.8 150 303.8 223.78 303.8 238.53C303.8 266.58 284.76 271.84 278.92 272.8C278.32 272.9 277.91 273.46 277.99 274.06C278.52 274.06 282.75 274.06 283.28 274.06C287.5 272.77 291.4 270.62 294.74 267.73C302.25 261.16 306.06 251.33 306.06 238.54C306.06 223.78 306.06 150 306.06 17.19L320.44 17.19L320.43 14.94Z" id="b3MlEYHxFG"></path><path d="M175.45 131.93C228.3 131.93 257.66 131.93 263.53 131.93C263.53 131.93 285.55 132.2 285.55 102.82C285.55 95.49 285.55 36.89 285.55 29.57C285.55 26.7 283.63 24.37 281.28 24.37C271.12 24.37 189.88 24.37 179.72 24.37C177.36 24.37 175.45 26.7 175.45 29.57C175.45 43.22 175.45 77.34 175.45 131.93Z" id="b2A2KgbH2B"></path><path d="M265.31 38.18C267.33 38.18 268.34 39.19 268.34 41.21C268.34 85.66 268.34 110.35 268.34 115.29C268.34 117.31 267.33 118.32 265.31 118.32C224.4 118.32 201.67 118.32 197.12 118.32C195.1 118.32 194.09 117.31 194.09 115.29C194.09 70.84 194.09 46.15 194.09 41.21C194.09 39.19 195.1 38.18 197.12 38.18C238.03 38.18 260.76 38.18 265.31 38.18Z" id="a3TkKX3OY"></path><path d="M254.93 178.53C255.68 182.95 253.03 187.09 249.03 187.76C245.02 188.44 241.17 185.39 240.43 180.96C239.68 176.53 242.33 172.39 246.33 171.72C250.34 171.05 254.19 174.1 254.93 178.53Z" id="c2Zyy9rLZn"></path><path d="M273.14 164.36C273.91 168.8 271.27 172.97 267.25 173.66C263.22 174.35 259.35 171.3 258.58 166.86C257.82 162.41 260.46 158.24 264.48 157.55C268.5 156.86 272.38 159.91 273.14 164.36Z" id="cXFR4pUBR"></path><path d="M250.8 193.81C245.7 197.92 238.4 196.59 234.49 190.84C234.49 190.84 234.49 190.84 234.49 190.84C230.59 185.09 231.55 177.1 236.65 172.99C239.06 171.06 258.3 155.55 260.7 153.61C265.8 149.49 273.1 150.83 277.01 156.57C277.01 156.57 277.01 156.57 277.01 156.57C280.91 162.32 279.94 170.31 274.85 174.42C270.04 178.3 253.2 191.87 250.8 193.81Z" id="a104HV3LAN"></path><path d="M211.76 229.96L224.33 222.47" id="f2gqOPemnl"></path><path d="M186.99 229.96L200.08 222.47" id="n81T3FjV6B"></path><path d="M202.45 167.12L202.45 153.23L189.25 153.23L189.25 167.12L175.31 167.12L175.31 180.29L189.25 180.29L189.25 194.19L202.45 194.19L202.45 180.29L216.39 180.29L216.39 167.12L216.39 167.12L202.45 167.12Z" id="d2o22NaoIO"></path><path d="M199.1 173.71C199.1 175.5 197.64 176.95 195.85 176.95C194.06 176.95 192.6 175.5 192.6 173.71C192.6 171.92 194.06 170.47 195.85 170.47C197.64 170.47 199.1 171.92 199.1 173.71Z" id="ffHmY7DGE"></path><path d="M202.61 117.75L202.61 38.18" id="eg49eOzo3"></path><path d="M180.81 80.2L187.62 80.2" id="b33zDMmiNl"></path><path d="M186.79 71.53C186.79 73.2 185.64 74.55 184.21 74.55C182.79 74.55 181.64 73.2 181.64 71.53C181.64 69.86 182.79 68.5 184.21 68.5C185.64 68.5 186.79 69.86 186.79 71.53Z" id="d3c3MnhKG"></path><path d="M273.93 218.72L283.2 240.33" id="g2l0oGD8T"></path><path d="M266.32 223.21L275.6 244.82" id="l2lyZCYMa5"></path><path d="M258.72 227.71L267.99 249.32" id="b2eSHOnpeX"></path><path d="M251.11 232.2L260.38 253.81" id="a252jmrVni"></path><path d="M243.51 236.7L252.78 258.31" id="a76bJiEq9"></path><path d="M235.91 241.19L245.18 262.8" id="d5HrhyB9yw"></path></defs><g><g><g><use xlink:href="#aGDZrIexU" opacity="1" fill="#000000" fill-opacity="1"></use><g><use xlink:href="#aGDZrIexU" opacity="1" fill-opacity="0" stroke="#000000" stroke-width="1" stroke-opacity="0"></use></g></g><g><use xlink:href="#b3R3wepIru" opacity="1" fill="#000000" fill-opacity="0"></use><g><use xlink:href="#b3R3wepIru" opacity="1" fill-opacity="0" stroke="#ffffff" stroke-width="6" stroke-opacity="1"></use></g></g><g><use xlink:href="#e4jBtSg7q3" opacity="1" fill="#ffffff" fill-opacity="1"></use><g><use xlink:href="#e4jBtSg7q3" opacity="1" fill-opacity="0" stroke="#000000" stroke-width="1" stroke-opacity="0"></use></g></g><g><use xlink:href="#g6WygUFp2" opacity="1" fill="#ffffff" fill-opacity="1"></use><g><use xlink:href="#g6WygUFp2" opacity="1" fill-opacity="0" stroke="#ffffff" stroke-width="1" stroke-opacity="0"></use></g></g><g><use xlink:href="#clBpw25qm" opacity="1" fill="#000000" fill-opacity="1"></use><g><use xlink:href="#clBpw25qm" opacity="1" fill-opacity="0" stroke="#000000" stroke-width="6" stroke-opacity="0"></use></g></g><g><use xlink:href="#b4gjcEwCT" opacity="1" fill="#ffffff" fill-opacity="1"></use><g><use xlink:href="#b4gjcEwCT" opacity="1" fill-opacity="0" stroke="#ffffff" stroke-width="1" stroke-opacity="0"></use></g></g><g><use xlink:href="#b12HXQcHe4" opacity="1" fill="#ffffff" fill-opacity="1"></use><g><use xlink:href="#b12HXQcHe4" opacity="1" fill-opacity="0" stroke="#000000" stroke-width="1" stroke-opacity="0"></use></g></g><g><use xlink:href="#gcNnmp9Kl" opacity="1" fill="#ffffff" fill-opacity="1"></use><g><use xlink:href="#gcNnmp9Kl" opacity="1" fill-opacity="0" stroke="#000000" stroke-width="1" stroke-opacity="0"></use></g></g><g><use xlink:href="#dqb6EvPia" opacity="1" fill="#000000" fill-opacity="1"></use><g><use xlink:href="#dqb6EvPia" opacity="1" fill-opacity="0" stroke="#000000" stroke-width="1" stroke-opacity="0"></use></g></g><g><use xlink:href="#d2yR83btjh" opacity="1" fill="#000000" fill-opacity="1"></use><g><use xlink:href="#d2yR83btjh" opacity="1" fill-opacity="0" stroke="#000000" stroke-width="1" stroke-opacity="0"></use></g></g><g><use xlink:href="#clcn6f65z" opacity="1" fill="#ffffff" fill-opacity="0"></use><g><use xlink:href="#clcn6f65z" opacity="1" fill-opacity="0" stroke="#ffffff" stroke-width="6" stroke-opacity="1"></use></g></g><g><use xlink:href="#anP9DhC3F" opacity="1" fill="#000000" fill-opacity="1"></use><g><use xlink:href="#anP9DhC3F" opacity="1" fill-opacity="0" stroke="#000000" stroke-width="1" stroke-opacity="0"></use></g></g><g><use xlink:href="#dpVLYNTgk" opacity="1" fill="#000000" fill-opacity="0"></use><g><use xlink:href="#dpVLYNTgk" opacity="1" fill-opacity="0" stroke="#ffffff" stroke-width="6" stroke-opacity="1"></use></g></g><g><use xlink:href="#c1gGjvIGsq" opacity="1" fill="#ffffff" fill-opacity="1"></use><g><use xlink:href="#c1gGjvIGsq" opacity="1" fill-opacity="0" stroke="#ffffff" stroke-width="1" stroke-opacity="0"></use></g></g><g><use xlink:href="#c5Giy6yiO" opacity="1" fill="#ffffff" fill-opacity="1"></use><g><use xlink:href="#c5Giy6yiO" opacity="1" fill-opacity="0" stroke="#000000" stroke-width="1" stroke-opacity="0"></use></g></g><g><use xlink:href="#eaSoWbgNC" opacity="1" fill="#ffffff" fill-opacity="1"></use><g><use xlink:href="#eaSoWbgNC" opacity="1" fill-opacity="0" stroke="#000000" stroke-width="1" stroke-opacity="0"></use></g></g><g><use xlink:href="#bzruJ3v2" opacity="1" fill="#ffffff" fill-opacity="1"></use><g><use xlink:href="#bzruJ3v2" opacity="1" fill-opacity="0" stroke="#000000" stroke-width="1" stroke-opacity="0"></use></g></g><g><use xlink:href="#j2VZs3laq0" opacity="1" fill="#000000" fill-opacity="0"></use><g><use xlink:href="#j2VZs3laq0" opacity="1" fill-opacity="0" stroke="#ffffff" stroke-width="6" stroke-opacity="1"></use></g></g><g><use xlink:href="#a1ks2n0CjG" opacity="1" fill="#ffffff" fill-opacity="0"></use><g><use xlink:href="#a1ks2n0CjG" opacity="1" fill-opacity="0" stroke="#ffffff" stroke-width="6" stroke-opacity="1"></use></g></g><g><use xlink:href="#a1WBOdYZ3O" opacity="1" fill="#000000" fill-opacity="0"></use><g><use xlink:href="#a1WBOdYZ3O" opacity="1" fill-opacity="0" stroke="#ffffff" stroke-width="6" stroke-opacity="1"></use></g></g><g><use xlink:href="#d3J0dYlpjt" opacity="1" fill="#000000" fill-opacity="0"></use><g><use xlink:href="#d3J0dYlpjt" opacity="1" fill-opacity="0" stroke="#ffffff" stroke-width="6" stroke-opacity="1"></use></g></g><g><use xlink:href="#eEan2Laet" opacity="1" fill="#000000" fill-opacity="1"></use><g><use xlink:href="#eEan2Laet" opacity="1" fill-opacity="0" stroke="#000000" stroke-width="1" stroke-opacity="0"></use></g></g><g><use xlink:href="#b3MlEYHxFG" opacity="1" fill="#ffffff" fill-opacity="1"></use><g><use xlink:href="#b3MlEYHxFG" opacity="1" fill-opacity="0" stroke="#000000" stroke-width="1" stroke-opacity="0"></use></g></g><g><use xlink:href="#b2A2KgbH2B" opacity="1" fill="#ffffff" fill-opacity="1"></use><g><use xlink:href="#b2A2KgbH2B" opacity="1" fill-opacity="0" stroke="#000000" stroke-width="1" stroke-opacity="0"></use></g></g><g><use xlink:href="#a3TkKX3OY" opacity="1" fill="#ffffff" fill-opacity="1"></use><g><use xlink:href="#a3TkKX3OY" opacity="1" fill-opacity="0" stroke="#000000" stroke-width="6" stroke-opacity="1"></use></g></g><g><use xlink:href="#c2Zyy9rLZn" opacity="1" fill="#ffffff" fill-opacity="1"></use><g><use xlink:href="#c2Zyy9rLZn" opacity="1" fill-opacity="0" stroke="#000000" stroke-width="1" stroke-opacity="0"></use></g></g><g><use xlink:href="#cXFR4pUBR" opacity="1" fill="#ffffff" fill-opacity="1"></use><g><use xlink:href="#cXFR4pUBR" opacity="1" fill-opacity="0" stroke="#000000" stroke-width="1" stroke-opacity="0"></use></g></g><g><use xlink:href="#a104HV3LAN" opacity="1" fill="#000000" fill-opacity="0"></use><g><use xlink:href="#a104HV3LAN" opacity="1" fill-opacity="0" stroke="#ffffff" stroke-width="6" stroke-opacity="1"></use></g></g><g><use xlink:href="#f2gqOPemnl" opacity="1" fill="#000000" fill-opacity="0"></use><g><use xlink:href="#f2gqOPemnl" opacity="1" fill-opacity="0" stroke="#ffffff" stroke-width="25" stroke-opacity="1"></use></g></g><g><use xlink:href="#n81T3FjV6B" opacity="1" fill="#000000" fill-opacity="0"></use><g><use xlink:href="#n81T3FjV6B" opacity="1" fill-opacity="0" stroke="#ffffff" stroke-width="25" stroke-opacity="1"></use></g></g><g><use xlink:href="#d2o22NaoIO" opacity="1" fill="#ffffff" fill-opacity="1"></use><g><use xlink:href="#d2o22NaoIO" opacity="1" fill-opacity="0" stroke="#000000" stroke-width="1" stroke-opacity="0"></use></g></g><g><use xlink:href="#ffHmY7DGE" opacity="1" fill="#000000" fill-opacity="0"></use><g><use xlink:href="#ffHmY7DGE" opacity="1" fill-opacity="0" stroke="#000000" stroke-width="6" stroke-opacity="1"></use></g></g><g><use xlink:href="#eg49eOzo3" opacity="1" fill="#000000" fill-opacity="0"></use><g><use xlink:href="#eg49eOzo3" opacity="1" fill-opacity="0" stroke="#000000" stroke-width="6" stroke-opacity="1"></use></g></g><g><use xlink:href="#b33zDMmiNl" opacity="1" fill="#000000" fill-opacity="0"></use><g><use xlink:href="#b33zDMmiNl" opacity="1" fill-opacity="0" stroke="#ffffff" stroke-width="6" stroke-opacity="1"></use></g></g><g><use xlink:href="#d3c3MnhKG" opacity="1" fill="#000000" fill-opacity="1"></use><g><use xlink:href="#d3c3MnhKG" opacity="1" fill-opacity="0" stroke="#000000" stroke-width="1" stroke-opacity="0"></use></g></g><g><use xlink:href="#g2l0oGD8T" opacity="1" fill="#000000" fill-opacity="0"></use><g><use xlink:href="#g2l0oGD8T" opacity="1" fill-opacity="0" stroke="#ffffff" stroke-width="6" stroke-opacity="1"></use></g></g><g><use xlink:href="#l2lyZCYMa5" opacity="1" fill="#000000" fill-opacity="0"></use><g><use xlink:href="#l2lyZCYMa5" opacity="1" fill-opacity="0" stroke="#ffffff" stroke-width="6" stroke-opacity="1"></use></g></g><g><use xlink:href="#b2eSHOnpeX" opacity="1" fill="#000000" fill-opacity="0"></use><g><use xlink:href="#b2eSHOnpeX" opacity="1" fill-opacity="0" stroke="#ffffff" stroke-width="6" stroke-opacity="1"></use></g></g><g><use xlink:href="#a252jmrVni" opacity="1" fill="#000000" fill-opacity="0"></use><g><use xlink:href="#a252jmrVni" opacity="1" fill-opacity="0" stroke="#ffffff" stroke-width="6" stroke-opacity="1"></use></g></g><g><use xlink:href="#a76bJiEq9" opacity="1" fill="#000000" fill-opacity="0"></use><g><use xlink:href="#a76bJiEq9" opacity="1" fill-opacity="0" stroke="#ffffff" stroke-width="6" stroke-opacity="1"></use></g></g><g><use xlink:href="#d5HrhyB9yw" opacity="1" fill="#000000" fill-opacity="0"></use><g><use xlink:href="#d5HrhyB9yw" opacity="1" fill-opacity="0" stroke="#ffffff" stroke-width="6" stroke-opacity="1"></use></g></g></g></g></svg>