<?xml version="1.0" encoding="UTF-8" standalone="no"?>
<!DOCTYPE svg PUBLIC "-//W3C//DTD SVG 1.1//EN" "http://www.w3.org/Graphics/SVG/1.1/DTD/svg11.dtd">
<svg version="1.1" xmlns="http://www.w3.org/2000/svg" xmlns:xlink="http://www.w3.org/1999/xlink" preserveAspectRatio="xMidYMid meet" viewBox="0 0 444 223.77" width="444" height="223.77"><defs><path d="M63.87 59.55C63.87 59.55 63.87 59.55 63.87 59.55C59.39 82.63 56.9 95.45 56.4 98.01C56.4 98.01 56.4 98.01 56.4 98.01C33.32 93.53 20.49 91.04 17.93 90.54C17.93 90.54 17.93 90.54 17.93 90.54C22.42 67.46 24.91 54.63 25.41 52.07C25.41 52.07 25.41 52.07 25.41 52.07C48.49 56.56 61.31 59.05 63.87 59.55Z" id="aFpR3EplA"></path><path d="M29.3 64.68L56.55 70.55" id="d6AqH1e9Vn"></path><path d="M28.32 69.78L54.62 75.45" id="a7lIKyq0eT"></path><path d="M26.61 75.01L46.77 79.35" id="a48KAgnIuy"></path><path d="M35.91 70.55C35.91 70.55 35.91 70.55 35.91 70.55C45.32 92.1 50.55 104.07 51.6 106.46C51.6 106.46 51.6 106.46 51.6 106.46C30.06 115.88 18.09 121.11 15.69 122.15C15.69 122.15 15.69 122.15 15.69 122.15C6.28 100.61 1.04 88.64 0 86.25C0 86.25 0 86.25 0 86.25C21.54 76.83 33.51 71.6 35.91 70.55Z" id="a12jS0DFK2"></path><path d="M13.78 95.65L30.71 88.68" id="b6im0NTZc"></path><path d="M17.2 101.78L25.13 98.52" id="ck6zt8BMF"></path><path d="M20.44 77.32L35.44 71.73L47.12 96.21L49.26 96.63L36.37 69.37L20.86 75.18L20.86 75.18L20.44 77.32Z" id="aMwo3Zdjz"></path><path d="M441.99 0C441.99 66.11 441.99 102.84 441.99 110.18C441.99 120.67 433.48 129.18 422.99 129.18C407.54 129.18 283.95 129.18 268.5 129.18C258.01 129.18 249.5 120.67 249.5 110.18C249.5 110.18 249.5 110.18 249.5 110.18C249.5 102.84 249.5 66.11 249.5 0L441.99 0Z" id="hXkdaMlA"></path><path d="M346.51 78.17C346.51 78.17 352.07 75.73 355.26 82.96C353.51 82 348.1 84.81 346.51 78.17Z" id="d3VZZYfe1"></path><path d="M341.34 66.97C340.43 68.21 340.07 69.78 340.35 71.3C340.59 72.97 341.6 74.42 343.08 75.23C342.73 77.41 342.1 80.55 341.37 81.66C341.01 82.2 341.21 83.01 341.82 83.47C342.42 83.93 343.2 83.87 343.56 83.33C344.62 81.72 345.33 77.76 345.65 75.66C345.7 75.66 345.74 75.66 345.79 75.64C348.31 75.16 349.94 72.43 349.45 69.56C349.3 68.67 348.94 67.84 348.41 67.12C351.25 66.41 353.77 64.76 355.54 62.43C359.41 57.27 358.16 50.43 352.75 47.14C347.33 43.85 339.82 45.37 335.95 50.52C332.09 55.67 333.34 62.52 338.75 65.81C339.57 66.3 340.44 66.69 341.34 66.97Z" id="e2NJ5cgOWU"></path><path d="M283.87 112.4L275.63 95.66L280.28 71.78L318.75 79.26L311.27 117.73L311.27 117.73L283.87 112.4Z" id="blfsRG9Ma"></path><path d="M286.65 80.91L309.13 84.9" id="a2qEPqsUD4"></path><path d="M285.95 84.86L308.43 88.85" id="aWUF9XMlP"></path><path d="M285.31 89L298.68 91.38" id="c1qdAILvxV"></path><path d="M282.94 112.14L286.09 97.99L275.01 95.74" id="akMHZw6G5"></path><path d="M252.09 21.89C248 21.89 245.72 21.89 245.26 21.89C245.26 21.89 237.56 99.13 185.95 89.63C185.95 89.63 26.04 62.4 22.24 135.85C22.24 135.85 76.7 169.42 76.7 169.42" id="h4sQOGEDee"></path><path d="M248.16 18.31C249.06 18.31 249.5 18.76 249.5 19.66C249.5 21.21 249.5 22.07 249.5 22.24C249.5 23.14 249.06 23.59 248.16 23.59C245.18 23.59 243.53 23.59 243.2 23.59C242.3 23.59 241.85 23.14 241.85 22.24C241.85 20.69 241.85 19.83 241.85 19.66C241.85 18.76 242.3 18.31 243.2 18.31C246.17 18.31 247.83 18.31 248.16 18.31Z" id="b2Nbo96t8t"></path><path d="M73.7 161.11C63.03 166.87 70.91 175.19 76.14 173.04C81.37 170.89 80.96 170.52 80.96 170.52C83.5 168.43 84.36 155.36 73.7 161.11Z" id="b1zvyrnyvC"></path><path d="M116.54 79.35C116.54 79.35 -9.79 136.4 50.99 209.06" id="dnxqsH5vl"></path><path d="M51.74 201.9C43.08 193.43 37.47 203.43 41.08 207.78C44.7 212.14 44.93 211.64 44.93 211.64C47.69 213.43 60.41 210.37 51.74 201.9Z" id="a2tRR7khu5"></path><path d="M127.81 75.01C130.45 75.01 131.77 76.33 131.77 78.97C131.77 78.97 131.77 78.97 131.77 78.97C131.77 81.61 130.45 82.93 127.81 82.93C120.59 82.93 116.58 82.93 115.78 82.93C113.14 82.93 111.82 81.61 111.82 78.97C111.82 78.97 111.82 78.97 111.82 78.97C111.82 76.33 113.14 75.01 115.78 75.01C123 75.01 127.01 75.01 127.81 75.01Z" id="a17yGopu44"></path><path d="M212.98 117.73C212.98 117.73 212.98 117.73 212.98 117.73C222.03 173.69 227.05 204.78 228.06 211C228.06 211 228.06 211 228.06 211C180.63 218.66 154.29 222.92 149.02 223.77C149.02 223.77 149.02 223.77 149.02 223.77C139.97 167.81 134.95 136.72 133.94 130.5C133.94 130.5 133.94 130.5 133.94 130.5C181.37 122.84 207.71 118.58 212.98 117.73Z" id="a3MKEBw6ec"></path><path d="M182.96 108.89C182.96 108.89 182.96 108.89 182.96 108.89C201.97 157.29 212.53 184.18 214.64 189.56C214.64 189.56 214.64 189.56 214.64 189.56C173.63 205.67 150.84 214.62 146.28 216.41C146.28 216.41 146.28 216.41 146.28 216.41C127.28 168 116.72 141.11 114.6 135.73C114.6 135.73 114.6 135.73 114.6 135.73C155.62 119.63 178.41 110.68 182.96 108.89Z" id="azJ0CnybS"></path><path d="M124.82 146.59L112.18 151.55" id="a3RilIIe9s"></path><path d="M129.17 160L116.54 164.96" id="b1FARG2dCP"></path><path d="M134.43 173.39L121.79 178.35" id="a1r5Bvudme"></path><path d="M139.69 186.78L127.05 191.74" id="b2MMtQiUyr"></path><path d="M144.95 200.16L132.31 205.13" id="a13P0E0wK0"></path><path d="M137.9 152.44L162.11 142.93" id="d38a0qX54R"></path><path d="M142.26 155.87L166.47 146.37" id="c4kI9PZgjx"></path><path d="M139.66 156.64L144.59 154.71" id="ip74X2DMg"></path><path d="M145.62 171.81L154.01 168.51" id="d1AsrlPn99"></path><path d="M143.72 166.97L158.68 161.1" id="a1bwCUV77g"></path><path d="M141.59 161.54L149.98 158.25" id="c1oMQSxux"></path><path d="M154.39 156.69L168.34 151.21" id="bFwITC2sy"></path><path d="M184.09 141.31L184.23 195.41L187.37 195.4L187.23 141.3L185.64 135.6L185.64 135.6L184.09 141.31Z" id="a1ZxGNr6ok"></path><path d="M169.38 129.02L176.74 182.63L179.85 182.2L172.49 128.6L170.16 123.16L170.16 123.16L169.38 129.02Z" id="e397OocM4B"></path><path d="M160.74 38.8L162.21 49.87C149.51 51.56 142.45 52.5 141.04 52.69C138.12 53.08 135.44 51.02 135.05 48.1C135.05 48.1 135.05 48.1 135.05 48.1C135.04 48.05 134.99 47.67 134.98 47.62C134.6 44.7 136.65 42.02 139.57 41.63C139.57 41.63 139.57 41.63 139.57 41.63C139.57 41.63 146.63 40.68 160.74 38.8Z" id="g3TZ6YAvFN"></path><path d="M184.59 11.74C169.16 11.74 156.65 24.25 156.65 39.68C156.65 55.11 169.16 67.61 184.59 67.61C200.02 67.61 212.53 55.11 212.53 39.68C212.53 24.25 200.02 11.74 184.59 11.74Z" id="b39JznuS3y"></path><path d="M184.59 19.92C173.68 19.92 164.83 28.77 164.83 39.68C164.83 50.59 173.68 59.43 184.59 59.43C195.5 59.43 204.34 50.59 204.34 39.68C204.34 28.77 195.5 19.92 184.59 19.92Z" id="c7aAeihhYG"></path></defs><g><g><g><use xlink:href="#aFpR3EplA" opacity="1" fill="#000000" fill-opacity="1"></use><g><use xlink:href="#aFpR3EplA" opacity="1" fill-opacity="0" stroke="#000000" stroke-width="1" stroke-opacity="0"></use></g></g><g><use xlink:href="#d6AqH1e9Vn" opacity="1" fill="#000000" fill-opacity="0"></use><g><use xlink:href="#d6AqH1e9Vn" opacity="1" fill-opacity="0" stroke="#ffffff" stroke-width="6" stroke-opacity="1"></use></g></g><g><use xlink:href="#a7lIKyq0eT" opacity="1" fill="#000000" fill-opacity="0"></use><g><use xlink:href="#a7lIKyq0eT" opacity="1" fill-opacity="0" stroke="#ffffff" stroke-width="6" stroke-opacity="1"></use></g></g><g><use xlink:href="#a48KAgnIuy" opacity="1" fill="#000000" fill-opacity="0"></use><g><use xlink:href="#a48KAgnIuy" opacity="1" fill-opacity="0" stroke="#ffffff" stroke-width="6" stroke-opacity="1"></use></g></g><g><use xlink:href="#a12jS0DFK2" opacity="1" fill="#000000" fill-opacity="1"></use><g><use xlink:href="#a12jS0DFK2" opacity="1" fill-opacity="0" stroke="#000000" stroke-width="1" stroke-opacity="0"></use></g></g><g><use xlink:href="#b6im0NTZc" opacity="1" fill="#000000" fill-opacity="0"></use><g><use xlink:href="#b6im0NTZc" opacity="1" fill-opacity="0" stroke="#ffffff" stroke-width="6" stroke-opacity="1"></use></g></g><g><use xlink:href="#ck6zt8BMF" opacity="1" fill="#ffffff" fill-opacity="0"></use><g><use xlink:href="#ck6zt8BMF" opacity="1" fill-opacity="0" stroke="#ffffff" stroke-width="6" stroke-opacity="1"></use></g></g><g><use xlink:href="#aMwo3Zdjz" opacity="1" fill="#ffffff" fill-opacity="1"></use><g><use xlink:href="#aMwo3Zdjz" opacity="1" fill-opacity="0" stroke="#000000" stroke-width="1" stroke-opacity="0"></use></g></g><g><use xlink:href="#hXkdaMlA" opacity="1" fill="#000000" fill-opacity="1"></use><g><use xlink:href="#hXkdaMlA" opacity="1" fill-opacity="0" stroke="#000000" stroke-width="1" stroke-opacity="0"></use></g></g><g><use xlink:href="#d3VZZYfe1" opacity="1" fill="#ffffff" fill-opacity="1"></use><g><use xlink:href="#d3VZZYfe1" opacity="1" fill-opacity="0" stroke="#000000" stroke-width="1" stroke-opacity="0"></use></g></g><g><use xlink:href="#e2NJ5cgOWU" opacity="1" fill="#ffffff" fill-opacity="1"></use><g><use xlink:href="#e2NJ5cgOWU" opacity="1" fill-opacity="0" stroke="#000000" stroke-width="1" stroke-opacity="0"></use></g></g><g><use xlink:href="#blfsRG9Ma" opacity="1" fill="#ffffff" fill-opacity="1"></use><g><use xlink:href="#blfsRG9Ma" opacity="1" fill-opacity="0" stroke="#2f2f2f" stroke-width="1" stroke-opacity="0"></use></g></g><g><use xlink:href="#a2qEPqsUD4" opacity="1" fill="#feba91" fill-opacity="1"></use><g><use xlink:href="#a2qEPqsUD4" opacity="1" fill-opacity="0" stroke="#000000" stroke-width="6" stroke-opacity="1"></use></g></g><g><use xlink:href="#aWUF9XMlP" opacity="1" fill="#feba91" fill-opacity="1"></use><g><use xlink:href="#aWUF9XMlP" opacity="1" fill-opacity="0" stroke="#000000" stroke-width="6" stroke-opacity="1"></use></g></g><g><use xlink:href="#c1qdAILvxV" opacity="1" fill="#feba91" fill-opacity="1"></use><g><use xlink:href="#c1qdAILvxV" opacity="1" fill-opacity="0" stroke="#000000" stroke-width="6" stroke-opacity="1"></use></g></g><g><use xlink:href="#akMHZw6G5" opacity="1" fill="#000000" fill-opacity="0"></use><g><use xlink:href="#akMHZw6G5" opacity="1" fill-opacity="0" stroke="#000000" stroke-width="2" stroke-opacity="1"></use></g></g><g><use xlink:href="#h4sQOGEDee" opacity="1" fill="#000000" fill-opacity="0"></use><g><use xlink:href="#h4sQOGEDee" opacity="1" fill-opacity="0" stroke="#000000" stroke-width="6" stroke-opacity="1"></use></g></g><g><use xlink:href="#b2Nbo96t8t" opacity="1" fill="#000000" fill-opacity="1"></use><g><use xlink:href="#b2Nbo96t8t" opacity="1" fill-opacity="0" stroke="#000000" stroke-width="1" stroke-opacity="0"></use></g></g><g><use xlink:href="#b1zvyrnyvC" opacity="1" fill="#ffffff" fill-opacity="1"></use><g><use xlink:href="#b1zvyrnyvC" opacity="1" fill-opacity="0" stroke="#000000" stroke-width="1" stroke-opacity="0"></use></g></g><g><use xlink:href="#dnxqsH5vl" opacity="1" fill="#000000" fill-opacity="0"></use><g><use xlink:href="#dnxqsH5vl" opacity="1" fill-opacity="0" stroke="#000000" stroke-width="7.33" stroke-opacity="1"></use></g></g><g><use xlink:href="#a2tRR7khu5" opacity="1" fill="#ffffff" fill-opacity="1"></use><g><use xlink:href="#a2tRR7khu5" opacity="1" fill-opacity="0" stroke="#000000" stroke-width="1" stroke-opacity="0"></use></g></g><g><use xlink:href="#a17yGopu44" opacity="1" fill="#ffffff" fill-opacity="1"></use><g><use xlink:href="#a17yGopu44" opacity="1" fill-opacity="0" stroke="#000000" stroke-width="1" stroke-opacity="0"></use></g></g><g><use xlink:href="#a3MKEBw6ec" opacity="1" fill="#000000" fill-opacity="1"></use><g><use xlink:href="#a3MKEBw6ec" opacity="1" fill-opacity="0" stroke="#000000" stroke-width="1" stroke-opacity="0"></use></g></g><g><use xlink:href="#azJ0CnybS" opacity="1" fill="#000000" fill-opacity="1"></use><g><use xlink:href="#azJ0CnybS" opacity="1" fill-opacity="0" stroke="#000000" stroke-width="6" stroke-opacity="1"></use></g></g><g><use xlink:href="#a3RilIIe9s" opacity="1" fill="#000000" fill-opacity="0"></use><g><use xlink:href="#a3RilIIe9s" opacity="1" fill-opacity="0" stroke="#000000" stroke-width="9.08" stroke-opacity="1"></use></g></g><g><use xlink:href="#b1FARG2dCP" opacity="1" fill="#000000" fill-opacity="0"></use><g><use xlink:href="#b1FARG2dCP" opacity="1" fill-opacity="0" stroke="#000000" stroke-width="9.08" stroke-opacity="1"></use></g></g><g><use xlink:href="#a1r5Bvudme" opacity="1" fill="#000000" fill-opacity="0"></use><g><use xlink:href="#a1r5Bvudme" opacity="1" fill-opacity="0" stroke="#000000" stroke-width="9.08" stroke-opacity="1"></use></g></g><g><use xlink:href="#b2MMtQiUyr" opacity="1" fill="#000000" fill-opacity="0"></use><g><use xlink:href="#b2MMtQiUyr" opacity="1" fill-opacity="0" stroke="#000000" stroke-width="9.08" stroke-opacity="1"></use></g></g><g><use xlink:href="#a13P0E0wK0" opacity="1" fill="#000000" fill-opacity="0"></use><g><use xlink:href="#a13P0E0wK0" opacity="1" fill-opacity="0" stroke="#000000" stroke-width="9.08" stroke-opacity="1"></use></g></g><g><use xlink:href="#d38a0qX54R" opacity="1" fill="#000000" fill-opacity="0"></use><g><use xlink:href="#d38a0qX54R" opacity="1" fill-opacity="0" stroke="#ffffff" stroke-width="6" stroke-opacity="1"></use></g></g><g><use xlink:href="#c4kI9PZgjx" opacity="1" fill="#000000" fill-opacity="0"></use><g><use xlink:href="#c4kI9PZgjx" opacity="1" fill-opacity="0" stroke="#ffffff" stroke-width="6" stroke-opacity="1"></use></g></g><g><use xlink:href="#ip74X2DMg" opacity="1" fill="#000000" fill-opacity="0"></use><g><use xlink:href="#ip74X2DMg" opacity="1" fill-opacity="0" stroke="#ffffff" stroke-width="6" stroke-opacity="1"></use></g></g><g><use xlink:href="#d1AsrlPn99" opacity="1" fill="#000000" fill-opacity="0"></use><g><use xlink:href="#d1AsrlPn99" opacity="1" fill-opacity="0" stroke="#ffffff" stroke-width="6" stroke-opacity="1"></use></g></g><g><use xlink:href="#a1bwCUV77g" opacity="1" fill="#000000" fill-opacity="0"></use><g><use xlink:href="#a1bwCUV77g" opacity="1" fill-opacity="0" stroke="#ffffff" stroke-width="6" stroke-opacity="1"></use></g></g><g><use xlink:href="#c1oMQSxux" opacity="1" fill="#000000" fill-opacity="0"></use><g><use xlink:href="#c1oMQSxux" opacity="1" fill-opacity="0" stroke="#ffffff" stroke-width="6" stroke-opacity="1"></use></g></g><g><use xlink:href="#bFwITC2sy" opacity="1" fill="#000000" fill-opacity="0"></use><g><use xlink:href="#bFwITC2sy" opacity="1" fill-opacity="0" stroke="#ffffff" stroke-width="6" stroke-opacity="1"></use></g></g><g><use xlink:href="#a1ZxGNr6ok" opacity="1" fill="#ffffff" fill-opacity="1"></use><g><use xlink:href="#a1ZxGNr6ok" opacity="1" fill-opacity="0" stroke="#000000" stroke-width="1" stroke-opacity="0"></use></g></g><g><use xlink:href="#e397OocM4B" opacity="1" fill="#ffffff" fill-opacity="1"></use><g><use xlink:href="#e397OocM4B" opacity="1" fill-opacity="0" stroke="#000000" stroke-width="1" stroke-opacity="0"></use></g></g><g><use xlink:href="#g3TZ6YAvFN" opacity="1" fill="#ffffff" fill-opacity="1"></use><g><use xlink:href="#g3TZ6YAvFN" opacity="1" fill-opacity="0" stroke="#000000" stroke-width="6" stroke-opacity="1"></use></g></g><g><use xlink:href="#b39JznuS3y" opacity="1" fill="#ffffff" fill-opacity="1"></use><g><use xlink:href="#b39JznuS3y" opacity="1" fill-opacity="0" stroke="#000000" stroke-width="6" stroke-opacity="1"></use></g></g><g><use xlink:href="#c7aAeihhYG" opacity="1" fill="#000000" fill-opacity="1"></use><g><use xlink:href="#c7aAeihhYG" opacity="1" fill-opacity="0" stroke="#000000" stroke-width="1" stroke-opacity="0"></use></g></g></g></g></svg>