<?xml version="1.0" encoding="UTF-8" standalone="no"?>
<!DOCTYPE svg PUBLIC "-//W3C//DTD SVG 1.1//EN" "http://www.w3.org/Graphics/SVG/1.1/DTD/svg11.dtd">
<svg version="1.1" xmlns="http://www.w3.org/2000/svg" xmlns:xlink="http://www.w3.org/1999/xlink" preserveAspectRatio="xMidYMid meet" viewBox="0 0 560 332" width="560" height="332"><defs><path d="M364.72 204.71C358.84 204.71 355.57 204.71 354.92 204.71C351.91 204.72 349.45 202.29 349.44 199.27C349.44 199.27 349.44 199.26 349.44 199.26C349.44 198.46 349.44 194.45 349.44 187.24L334.26 190.96C336.71 200.54 338.06 205.87 338.34 206.94C342.63 265.45 265.55 271.86 262.63 208.48C259.45 209.26 243.53 213.15 214.87 220.17L214.87 220.14L183.68 226.93L204.44 309.83C230.42 303.56 244.86 300.07 247.74 299.37C253.72 310.91 258.09 318.92 258.09 318.92C266.99 318.92 311.52 318.92 391.66 318.92L364.72 204.71Z" id="d3aVwmIs39"></path><path d="M58.14 82.44C49.22 79.83 38.84 78.23 26.78 78.06C26.78 78.06 22.19 94.75 27.79 115.61" id="b1BFtXkoLk"></path><path d="M58.3 118.26C56.01 106.4 55.93 94.22 58.07 82.33" id="b6KbREkuaP"></path><path d="M58.07 82.33C61.72 61.86 72.2 38.88 94.01 14.28C94.01 14.28 117.3 26.54 134.65 52.62" id="a19Snbsja4"></path><path d="M155.12 150.09C155.12 150.09 174.2 80.83 240.48 101.06C240.48 101.06 238.79 119.65 229.41 138.23" id="c2dMZSmHL"></path><path d="M108.04 99.76C115.78 73.28 134.75 43.96 176.21 19C176.21 19 190.07 36.5 197.8 58.71C202.54 72.32 200.9 89.97 204.32 99.76" id="c1U6KK8Q97"></path><path d="M178.2 112.51C175.71 99.11 168.71 83.67 154.39 66.39C154.39 66.39 57.4 110.39 106.03 169.77" id="cvlvluGvP"></path><path d="M127.79 169.82C118.26 155.58 83.93 111.34 27.83 116.29" id="c1FPiJBuew"></path><path d="M27.85 116.28C19.89 117 12.03 118.59 4.42 121.01C4.42 121.01 18.33 153.14 50.37 172.84" id="bMW7A6r1x"></path><path d="M198.61 226.29L204.45 200.62C210.28 200.62 213.52 200.62 214.17 200.62C217.18 200.62 219.63 198.18 219.63 195.17C219.63 195.17 219.63 195.17 219.63 195.17C219.63 193.17 219.63 177.23 219.63 175.24C219.63 172.22 217.18 169.78 214.17 169.78C214.17 169.78 214.17 169.78 214.17 169.78C212.83 169.78 206.13 169.78 194.07 169.78" id="bKTWtz99"></path><path d="M141.96 169.78C89.88 169.78 60.95 169.78 55.17 169.78C52.16 169.78 49.72 172.23 49.72 175.24C49.72 177.23 49.72 193.17 49.72 195.17C49.72 198.18 52.16 200.62 55.17 200.62C55.78 200.62 58.8 200.62 64.25 200.62L96.9 294.18" id="qbSaVb7rY"></path><path d="M167.27 320.03C220.41 302.07 313.69 283.56 313.69 283.56C303.81 277.38 224.73 227.9 214.85 221.71C214.85 221.71 192.83 226.71 170.33 233.61" id="aXuMETwWj"></path><path d="M169.13 319.7C130.9 319.7 111.79 319.7 111.79 319.7C86 315.27 93.36 242.97 136.72 179.09C156.15 147.52 161.74 138.93 176.68 134.02C182.53 132.1 188.78 132.11 195.43 135.04C219.05 145.49 244.15 156.36 227.34 161.14C210.53 165.92 170.85 198.52 170.85 198.52C170.85 198.52 171.23 240.88 169.13 256.32C167.79 266.09 165.48 275.7 162.24 285.01" id="fpnraMnHG"></path><path d="M339.13 141.62C343.81 142.04 353.83 144.37 352.2 156.58C350.77 167.26 341.27 167.19 335.21 166" id="aIqGaJ5vN"></path><path d="M332.19 182.81C335.89 197.29 337.94 205.33 338.35 206.94C342.52 263.9 269.55 271.49 263.01 213.34" id="c2cPmfJnux"></path><path d="M321.95 144.4C321.95 144.4 316.92 118.52 315.5 126.44C315.5 126.44 250.01 103.13 244.1 105.32C244.1 105.32 251.83 200.94 265.02 214.45C278.21 227.95 303.89 222.27 315.5 212.89C327.11 203.51 328.86 199.28 331.08 189.89C333.3 180.51 338.52 145.75 338.52 145.75C335.21 145.48 325.27 144.67 321.95 144.4Z" id="awsMZnXv6"></path><path d="M349.68 129.87C351.38 120 346.2 110.09 336.92 106.32C329.15 103.16 326.62 104.19 326.62 104.19C326.62 104.19 331.24 95.99 319.24 83.91C315 79.64 309.19 77.3 303.18 77.44C288.5 77.83 283.93 90.23 283.93 90.23C283.93 90.23 268.28 61.32 236.03 78.32C232.78 80.03 229.1 84.83 227.34 88.06C216.65 107.64 251.66 130.96 269.91 132.85C289.95 134.92 302.54 132.43 308.66 127.12C304.06 130.3 312.25 159.66 341.7 153.13C341.7 153.13 347.86 140.38 349.68 129.87Z" id="bhxOOzAHb"></path><path d="M267.71 159.2L266.5 183.43L274.84 180.71" id="g1W1z72s98"></path><path d="M293.16 142.01C290.41 138.93 286.21 137.58 282.19 138.5" id="bmhcE5H1C"></path><path d="M262.01 134.06C262.01 134.06 255.32 131.78 253.19 137.23" id="a3w8ZPaaG"></path><path d="M285.95 196.09C290.98 196.9 297.94 191.96 295.1 188.07C293.78 186.26 280.93 195.28 285.95 196.09Z" id="d13f4YJqTl"></path><path d="M241.21 186.41C270.51 176.51 286.79 171.01 290.04 169.91C290.04 169.91 296.58 167.42 296.35 158.94C296.35 158.94 285.46 147.3 285.46 147.3C281.99 146.81 264.64 144.36 233.41 139.95L241.21 186.41Z" id="dBKJHH2w"></path><path d="M188.95 186.41C218.25 176.51 234.53 171.01 237.78 169.91C237.78 169.91 244.32 167.42 244.09 158.94C244.09 158.94 233.2 147.3 233.2 147.3C231.52 147.41 223.13 147.96 208.02 148.97L181.15 139.95L188.95 186.41Z" id="bk993vb5K"></path><path d="M232.86 139.77C219.57 139.77 208.79 150.55 208.79 163.84C208.79 177.14 219.57 187.92 232.86 187.92C246.16 187.92 256.94 177.14 256.94 163.84C256.94 150.55 246.16 139.77 232.86 139.77Z" id="a34t3CCIGg"></path><path d="M180.24 140.11C166.94 140.11 156.17 150.89 156.17 164.19C156.17 177.48 166.94 188.26 180.24 188.26C193.54 188.26 204.32 177.48 204.32 164.19C204.32 150.89 193.54 140.11 180.24 140.11Z" id="bkCcJCsPW"></path><path d="M189.8 131.63C199.49 124.79 218.11 122.48 222.15 123.08C226.02 123.66 223.77 130.06 212.2 133.59" id="deLe5IdHB"></path><path d="M194.42 129.67C206.11 126.8 226.77 137.67 230.09 140.85C233.65 144.25 223.99 149.6 205.85 139.07C205.85 139.07 200.54 135.48 196.24 135.89" id="b3dFbgCMCS"></path><path d="M177.6 133.37C188.61 128.1 212.04 140.34 215.6 143.74C219.16 147.14 209.5 152.48 191.36 141.96C191.36 141.96 178.53 135 174.24 135.41" id="beJUzBseT"></path><path d="M404.41 71.04C399.93 50.27 397.44 38.73 396.94 36.42C394.93 27.06 385.12 20.99 375.04 22.87C375.04 22.87 375.04 22.87 375.04 22.87C364.97 24.76 358.43 33.85 360.46 43.23C361.2 46.67 364.91 63.89 371.6 94.88" id="g37tnAtAT2"></path><path d="M454.03 72.96C454.75 42.69 455.15 25.87 455.23 22.5C455.53 12.96 447.45 5 437.18 4.71C437.18 4.71 437.18 4.71 437.18 4.71C426.91 4.43 418.33 11.94 418.03 21.48C417.93 24.63 417.43 40.38 416.52 68.72" id="d4yjmh7Jlm"></path><path d="M363.98 97.77C355.61 82.18 350.96 73.51 350.03 71.78C345.45 63.24 334.28 59.77 325.08 64.03C325.08 64.03 325.08 64.03 325.08 64.03C315.88 68.29 312.15 78.67 316.73 87.21C318.74 90.95 328.76 109.61 346.8 143.21" id="a15IYJptzP"></path><path d="M507.18 173.7C535.05 121.81 550.53 92.98 553.62 87.21C558.21 78.67 554.48 68.29 545.28 64.03C545.28 64.03 545.28 64.03 545.28 64.03C536.09 59.77 524.92 63.24 520.32 71.78C519.54 73.25 515.61 80.57 508.54 93.75" id="cjDlZ6UI7"></path><path d="M352.94 154.64L363.13 173.61" id="cBzTrmo8"></path><path d="M494.36 173.79C508.26 143.26 515.98 126.29 517.52 122.9C522.02 113.03 518.74 100.54 510.2 94.98C510.2 94.98 510.2 94.98 510.2 94.98C501.67 89.43 491.12 92.92 486.63 102.78C485.44 105.38 479.51 118.4 468.85 141.83C474.55 115.54 477.72 100.94 478.35 98.01C480.71 87.13 475.05 75.79 465.7 72.71C465.7 72.71 465.7 72.71 465.7 72.71C456.36 69.62 446.85 75.95 444.5 86.84C443.87 89.73 440.73 104.19 435.08 130.22C432.1 104.29 430.45 89.89 430.12 87.01C428.82 75.76 420.02 67.6 410.47 68.8C410.47 68.8 410.47 68.8 410.47 68.8C400.92 70.01 394.22 80.11 395.52 91.36C395.86 94.33 397.58 109.21 400.66 135.98C393.92 118.58 390.18 108.91 389.43 106.98C385.4 96.56 375.03 91.72 366.27 96.16C366.27 96.16 366.27 96.16 366.27 96.16C357.51 100.6 353.68 112.63 357.72 123.05C359.03 126.43 365.58 143.35 377.38 173.81" id="j1FyNVSvyR"></path><path d="M499.33 92.25C505.66 62.84 509.18 46.5 509.88 43.23C511.9 33.87 505.36 24.76 495.29 22.88C495.29 22.88 495.29 22.88 495.29 22.88C485.22 20.99 475.41 27.07 473.39 36.43C472.8 38.81 469.86 50.72 464.55 72.16" id="b1Twfe6Y8"></path><path d="M489.28 270.78L504.89 204.53C510.39 204.53 513.45 204.53 514.06 204.53C517.07 204.54 519.53 202.1 519.54 199.09C519.54 199.08 519.54 199.08 519.54 199.08C519.54 197.08 519.54 181.07 519.54 179.07C519.54 176.06 517.09 173.61 514.08 173.61C514.07 173.61 514.07 173.61 514.06 173.61C498.11 173.61 370.55 173.61 354.6 173.61C351.59 173.6 349.14 176.04 349.13 179.06C349.13 179.06 349.13 179.07 349.13 179.07C349.13 181.07 349.13 197.08 349.13 199.08C349.14 202.09 351.58 204.53 354.6 204.53C354.6 204.53 354.6 204.53 354.6 204.53C355.26 204.53 358.52 204.53 364.41 204.53C377.88 262.02 386.86 300.35 391.35 319.51C395.85 338.68 428.49 322.43 489.28 270.78Z" id="e1vlYp3SyA"></path><path d="M466.15 268.66C461.8 262.44 458.47 255.79 462.64 254.01C468.38 251.57 468.3 257.74 476.94 263.64C485.59 269.54 493.69 270.64 502.26 281.36" id="a1QSkUIgvo"></path><path d="M467.24 269.67C452.48 261.65 431.04 261.19 425.9 261.42C422.77 261.56 421.69 264.22 424.06 267.57" id="a3hjBw42Th"></path><path d="M458.29 277.99C443.33 270.14 422.02 267.2 416.58 267.63C412.08 267.98 412.03 273.75 419.22 279.51" id="d1ddq695P"></path><path d="M454.74 288.03C441.07 281.92 425.19 279.04 420.57 279.29C415.62 279.56 415.43 287.18 424.48 294.18" id="g15qawRgl6"></path><path d="M454.09 298.16C442.53 293.36 431.02 290.72 427.32 291.17C420.03 292.04 426.12 305.07 460.72 315.46" id="b1jwAZGzoR"></path><path d="M460.73 315.46C531.93 334.88 527.29 273.23 465.7 269.39" id="c1GF8uzOPh"></path></defs><g><g><g><use xlink:href="#d3aVwmIs39" opacity="1" fill="#000000" fill-opacity="1"></use><g><use xlink:href="#d3aVwmIs39" opacity="1" fill-opacity="0" stroke="#000000" stroke-width="1" stroke-opacity="0"></use></g></g><g><use xlink:href="#b1BFtXkoLk" opacity="1" fill="#000000" fill-opacity="0"></use><g><use xlink:href="#b1BFtXkoLk" opacity="1" fill-opacity="0" stroke="#000000" stroke-width="6" stroke-opacity="1"></use></g></g><g><use xlink:href="#b6KbREkuaP" opacity="1" fill="#000000" fill-opacity="0"></use><g><use xlink:href="#b6KbREkuaP" opacity="1" fill-opacity="0" stroke="#000000" stroke-width="6" stroke-opacity="1"></use></g></g><g><use xlink:href="#a19Snbsja4" opacity="1" fill="#000000" fill-opacity="0"></use><g><use xlink:href="#a19Snbsja4" opacity="1" fill-opacity="0" stroke="#000000" stroke-width="6" stroke-opacity="1"></use></g></g><g><use xlink:href="#c2dMZSmHL" opacity="1" fill="#000000" fill-opacity="0"></use><g><use xlink:href="#c2dMZSmHL" opacity="1" fill-opacity="0" stroke="#000000" stroke-width="6" stroke-opacity="1"></use></g></g><g><use xlink:href="#c1U6KK8Q97" opacity="1" fill="#000000" fill-opacity="0"></use><g><use xlink:href="#c1U6KK8Q97" opacity="1" fill-opacity="0" stroke="#000000" stroke-width="6" stroke-opacity="1"></use></g></g><g><use xlink:href="#cvlvluGvP" opacity="1" fill="#000000" fill-opacity="0"></use><g><use xlink:href="#cvlvluGvP" opacity="1" fill-opacity="0" stroke="#000000" stroke-width="6" stroke-opacity="1"></use></g></g><g><use xlink:href="#c1FPiJBuew" opacity="1" fill="#000000" fill-opacity="0"></use><g><use xlink:href="#c1FPiJBuew" opacity="1" fill-opacity="0" stroke="#000000" stroke-width="6" stroke-opacity="1"></use></g></g><g><use xlink:href="#bMW7A6r1x" opacity="1" fill="#000000" fill-opacity="0"></use><g><use xlink:href="#bMW7A6r1x" opacity="1" fill-opacity="0" stroke="#000000" stroke-width="6" stroke-opacity="1"></use></g></g><g><use xlink:href="#bKTWtz99" opacity="1" fill="#000000" fill-opacity="0"></use><g><use xlink:href="#bKTWtz99" opacity="1" fill-opacity="0" stroke="#000000" stroke-width="6" stroke-opacity="1"></use></g></g><g><use xlink:href="#qbSaVb7rY" opacity="1" fill="#000000" fill-opacity="0"></use><g><use xlink:href="#qbSaVb7rY" opacity="1" fill-opacity="0" stroke="#000000" stroke-width="6" stroke-opacity="1"></use></g></g><g><use xlink:href="#aXuMETwWj" opacity="1" fill="#000000" fill-opacity="0"></use><g><use xlink:href="#aXuMETwWj" opacity="1" fill-opacity="0" stroke="#000000" stroke-width="6" stroke-opacity="1"></use></g></g><g><use xlink:href="#fpnraMnHG" opacity="1" fill="#000000" fill-opacity="0"></use><g><use xlink:href="#fpnraMnHG" opacity="1" fill-opacity="0" stroke="#000000" stroke-width="6" stroke-opacity="1"></use></g></g><g><use xlink:href="#aIqGaJ5vN" opacity="1" fill="#000000" fill-opacity="0"></use><g><use xlink:href="#aIqGaJ5vN" opacity="1" fill-opacity="0" stroke="#000000" stroke-width="6" stroke-opacity="1"></use></g></g><g><use xlink:href="#c2cPmfJnux" opacity="1" fill="#000000" fill-opacity="0"></use><g><use xlink:href="#c2cPmfJnux" opacity="1" fill-opacity="0" stroke="#000000" stroke-width="6" stroke-opacity="1"></use></g></g><g><use xlink:href="#awsMZnXv6" opacity="1" fill="#000000" fill-opacity="0"></use><g><use xlink:href="#awsMZnXv6" opacity="1" fill-opacity="0" stroke="#000000" stroke-width="6" stroke-opacity="1"></use></g></g><g><use xlink:href="#bhxOOzAHb" opacity="1" fill="#000000" fill-opacity="1"></use><g><use xlink:href="#bhxOOzAHb" opacity="1" fill-opacity="0" stroke="#000000" stroke-width="1" stroke-opacity="0"></use></g></g><g><use xlink:href="#g1W1z72s98" opacity="1" fill="#000000" fill-opacity="0"></use><g><use xlink:href="#g1W1z72s98" opacity="1" fill-opacity="0" stroke="#000000" stroke-width="8" stroke-opacity="1"></use></g></g><g><use xlink:href="#bmhcE5H1C" opacity="1" fill="#000000" fill-opacity="0"></use><g><use xlink:href="#bmhcE5H1C" opacity="1" fill-opacity="0" stroke="#000000" stroke-width="8" stroke-opacity="1"></use></g></g><g><use xlink:href="#a3w8ZPaaG" opacity="1" fill="#000000" fill-opacity="0"></use><g><use xlink:href="#a3w8ZPaaG" opacity="1" fill-opacity="0" stroke="#000000" stroke-width="8" stroke-opacity="1"></use></g></g><g><use xlink:href="#d13f4YJqTl" opacity="1" fill="#000000" fill-opacity="1"></use><g><use xlink:href="#d13f4YJqTl" opacity="1" fill-opacity="0" stroke="#000000" stroke-width="1" stroke-opacity="0"></use></g></g><g><use xlink:href="#dBKJHH2w" opacity="1" fill="#000000" fill-opacity="1"></use><g><use xlink:href="#dBKJHH2w" opacity="1" fill-opacity="0" stroke="#000000" stroke-width="1" stroke-opacity="0"></use></g></g><g><use xlink:href="#bk993vb5K" opacity="1" fill="#000000" fill-opacity="1"></use><g><use xlink:href="#bk993vb5K" opacity="1" fill-opacity="0" stroke="#000000" stroke-width="1" stroke-opacity="0"></use></g></g><g><use xlink:href="#a34t3CCIGg" opacity="1" fill="#ffffff" fill-opacity="1"></use><g><use xlink:href="#a34t3CCIGg" opacity="1" fill-opacity="0" stroke="#000000" stroke-width="1" stroke-opacity="0"></use></g></g><g><use xlink:href="#bkCcJCsPW" opacity="1" fill="#ffffff" fill-opacity="1"></use><g><use xlink:href="#bkCcJCsPW" opacity="1" fill-opacity="0" stroke="#000000" stroke-width="1" stroke-opacity="0"></use></g></g><g><use xlink:href="#deLe5IdHB" opacity="1" fill="#000000" fill-opacity="0"></use><g><use xlink:href="#deLe5IdHB" opacity="1" fill-opacity="0" stroke="#000000" stroke-width="6" stroke-opacity="1"></use></g></g><g><use xlink:href="#b3dFbgCMCS" opacity="1" fill="#000000" fill-opacity="0"></use><g><use xlink:href="#b3dFbgCMCS" opacity="1" fill-opacity="0" stroke="#000000" stroke-width="6" stroke-opacity="1"></use></g></g><g><use xlink:href="#beJUzBseT" opacity="1" fill="#000000" fill-opacity="0"></use><g><use xlink:href="#beJUzBseT" opacity="1" fill-opacity="0" stroke="#000000" stroke-width="6" stroke-opacity="1"></use></g></g><g><use xlink:href="#g37tnAtAT2" opacity="1" fill="#000000" fill-opacity="0"></use><g><use xlink:href="#g37tnAtAT2" opacity="1" fill-opacity="0" stroke="#000000" stroke-width="6" stroke-opacity="1"></use></g></g><g><use xlink:href="#d4yjmh7Jlm" opacity="1" fill="#000000" fill-opacity="0"></use><g><use xlink:href="#d4yjmh7Jlm" opacity="1" fill-opacity="0" stroke="#000000" stroke-width="6" stroke-opacity="1"></use></g></g><g><use xlink:href="#a15IYJptzP" opacity="1" fill="#000000" fill-opacity="0"></use><g><use xlink:href="#a15IYJptzP" opacity="1" fill-opacity="0" stroke="#000000" stroke-width="6" stroke-opacity="1"></use></g></g><g><use xlink:href="#cjDlZ6UI7" opacity="1" fill="#000000" fill-opacity="0"></use><g><use xlink:href="#cjDlZ6UI7" opacity="1" fill-opacity="0" stroke="#000000" stroke-width="6" stroke-opacity="1"></use></g></g><g><use xlink:href="#cBzTrmo8" opacity="1" fill="#000000" fill-opacity="0"></use><g><use xlink:href="#cBzTrmo8" opacity="1" fill-opacity="0" stroke="#000000" stroke-width="6" stroke-opacity="1"></use></g></g><g><use xlink:href="#j1FyNVSvyR" opacity="1" fill="#000000" fill-opacity="0"></use><g><use xlink:href="#j1FyNVSvyR" opacity="1" fill-opacity="0" stroke="#000000" stroke-width="6" stroke-opacity="1"></use></g></g><g><use xlink:href="#b1Twfe6Y8" opacity="1" fill="#000000" fill-opacity="0"></use><g><use xlink:href="#b1Twfe6Y8" opacity="1" fill-opacity="0" stroke="#000000" stroke-width="6" stroke-opacity="1"></use></g></g><g><use xlink:href="#e1vlYp3SyA" opacity="1" fill="#000000" fill-opacity="0"></use><g><use xlink:href="#e1vlYp3SyA" opacity="1" fill-opacity="0" stroke="#000000" stroke-width="6" stroke-opacity="1"></use></g></g><g><use xlink:href="#a1QSkUIgvo" opacity="1" fill="#000000" fill-opacity="0"></use><g><use xlink:href="#a1QSkUIgvo" opacity="1" fill-opacity="0" stroke="#000000" stroke-width="6" stroke-opacity="1"></use></g></g><g><use xlink:href="#a3hjBw42Th" opacity="1" fill="#000000" fill-opacity="0"></use><g><use xlink:href="#a3hjBw42Th" opacity="1" fill-opacity="0" stroke="#000000" stroke-width="6" stroke-opacity="1"></use></g></g><g><use xlink:href="#d1ddq695P" opacity="1" fill="#000000" fill-opacity="0"></use><g><use xlink:href="#d1ddq695P" opacity="1" fill-opacity="0" stroke="#000000" stroke-width="6" stroke-opacity="1"></use></g></g><g><use xlink:href="#g15qawRgl6" opacity="1" fill="#000000" fill-opacity="0"></use><g><use xlink:href="#g15qawRgl6" opacity="1" fill-opacity="0" stroke="#000000" stroke-width="6" stroke-opacity="1"></use></g></g><g><use xlink:href="#b1jwAZGzoR" opacity="1" fill="#000000" fill-opacity="0"></use><g><use xlink:href="#b1jwAZGzoR" opacity="1" fill-opacity="0" stroke="#000000" stroke-width="6" stroke-opacity="1"></use></g></g><g><use xlink:href="#c1GF8uzOPh" opacity="1" fill="#000000" fill-opacity="0"></use><g><use xlink:href="#c1GF8uzOPh" opacity="1" fill-opacity="0" stroke="#000000" stroke-width="6" stroke-opacity="1"></use></g></g></g></g></svg>