<?xml version="1.0" encoding="UTF-8" standalone="no"?>
<!DOCTYPE svg PUBLIC "-//W3C//DTD SVG 1.1//EN" "http://www.w3.org/Graphics/SVG/1.1/DTD/svg11.dtd">
<svg version="1.1" xmlns="http://www.w3.org/2000/svg" xmlns:xlink="http://www.w3.org/1999/xlink" preserveAspectRatio="xMidYMid meet" viewBox="0 0 502 324.95" width="502" height="324.95"><defs><path d="M33 279.64C13.83 219.5 4.25 184.44 4.25 174.46C4.27 142.12 30.49 115.92 62.84 115.92C65.89 115.92 81.19 115.92 108.72 115.92" id="b1y1tSP0XM"></path><path d="M174.81 193.53C174.81 193.53 179.8 208.5 180.54 215.75" id="b3inUm36M"></path><path d="M236.35 188.11C235.9 197.53 236.06 206.98 236.82 216.38" id="c1ZYymjWI"></path><path d="M283.42 140.55C285.16 142.35 285.84 167.24 301.59 166.95" id="b2iybQfATz"></path><path d="M222.96 43.93C222.94 43.91 222.86 43.82 222.72 43.66C222.04 45.56 221.66 46.61 221.58 46.82C221.58 46.82 218.05 48.35 216.88 43.82C216.52 42.44 217.34 40.75 218.64 39.08C218.63 39.08 218.6 39.04 218.6 39.04C213.68 40.18 204.07 42.04 203.2 40.11C201.98 37.37 219.32 30.1 224.6 27.77C227.31 26.58 236.68 24.01 241.73 23.28C245.08 22.85 248.47 22.81 251.83 23.17C252.22 20.06 251.61 16.92 250.1 14.18C248.46 11.16 245.04 6.67 242 5.06C211.89 -10.92 197.2 16.06 197.2 16.06C197.2 16.06 192.96 4.49 179.24 4.08C173.62 3.93 168.18 6.1 164.2 10.08C152.97 21.34 160.46 34.09 160.46 34.09C160.46 34.09 155.23 31.42 148.17 34.83C139.74 38.91 135.5 48.46 137.69 57.56C140.02 67.23 144.31 76.44 144.31 76.44C171.71 80.68 191.69 57.82 210.2 55.96C214.44 55.52 219.64 53.85 224.93 51.32C223.91 51.18 222.72 50.51 221.97 48.36C221.53 47.07 222.03 45.5 222.96 43.93Z" id="hyuU9CGyy"></path><path d="M269.22 230.78C269.22 230.64 269.22 230.56 269.22 230.54C369.86 240.1 366.94 196.27 356.41 152.19C353.77 143.45 332.62 73.53 329.98 64.79C326.08 56.29 322.6 59.92 321.13 57.27C317.74 51.06 316.39 48.33 316.39 48.33C304.03 58.81 279.33 54.23 279.33 54.23C279.33 54.23 279.12 56.49 278.94 63.41C278.77 70.32 271.07 69.3 271.97 78.5C272.75 82.63 276.61 103.32 283.56 140.55C264.25 136.43 253.52 134.14 251.37 133.69C249.31 122.42 244.06 105.32 231.44 94.51" id="e2ZVORpW0E"></path><path d="M273.76 323.73L273.23 287.7" id="a2LaCpmcIe"></path><path d="M152.1 72.51C154.76 75.2 155.08 58.72 156.82 65.94C156.82 65.94 231.33 46.77 236.82 48.44C236.82 48.44 233.2 85.02 227.24 111.79C224.63 123.53 221.56 133.39 218.16 137.43C206.99 150.67 183.37 146.97 172.28 139C161.19 131.04 159.37 127.24 156.8 118.72C154.24 110.19 147.46 78.43 147.46 78.43C149.33 78.28 150.23 72.66 152.1 72.51Z" id="e2i1P41kW"></path><path d="M247.86 133.29C248.7 137.51 249.07 141.81 248.96 146.12C248 168.31 239.32 176.97 237.25 185.14C263.93 175.3 266.02 149.28 264.15 136.89C259.07 134.79 252.3 134 247.86 133.29Z" id="e4a5C57wRu"></path><path d="M213.64 281.9C210.84 283.34 204.93 286.47 197.03 290.43C198.67 310.69 199.56 325.59 199.56 325.59C202.85 325.63 229.17 326 232.46 326.04C232.46 326.04 231.55 292.18 230.83 257.78C229.01 261.47 226.59 266.74 226.25 269.59C225.69 274.29 224.61 276.26 213.64 281.9Z" id="asatIeSd7"></path><path d="M247.04 249.71L227.46 253.72" id="a2XMhedfDU"></path><path d="M270.26 277.82C271.91 284.14 275.54 296.29 278.27 296.13C282.14 295.89 280.07 271.62 279.53 264.17C279.26 260.35 276.58 248.06 274.39 241.85C271.53 233.72 258.5 208.96 231.98 218C230.71 218.31 224.32 219.87 212.83 222.68" id="asPws4Qeo"></path><path d="M248.1 244.78C247.67 249.08 245.15 258.14 248.45 264.1" id="j1IOjdqwJp"></path><path d="M273.76 263.7C273.76 263.7 271.69 281.3 265.81 282.66C265.81 282.66 259.55 279.05 259.55 279.05" id="b1TrO9iGOQ"></path><path d="M266.7 263.1C266.7 263.1 263.52 278.61 257.56 279.53C251.59 280.44 251.59 275.49 251.59 275.49" id="d11hmIaBt8"></path><path d="M257.99 262.14C257.99 262.14 253.87 280.74 247.25 273.69C247.25 273.69 241.33 263.04 241.33 263.04C241.33 263.04 244.51 257.93 249.62 266.09" id="akv44Owbp"></path><path d="M217.16 138.26C216.07 154.83 212.52 174.04 208.78 180.3C191.08 168.03 177.82 161 167.21 155.39C160.51 144.59 154.85 134.96 152.41 127.97C152.44 126.91 152.48 125.84 152.51 124.76C152.4 124.77 151.47 124.86 151.36 124.87C154.31 134.59 160.67 148.41 173.83 166.96C176.52 170.1 178.99 173.43 181.21 176.91C181.21 176.91 181.21 176.91 181.21 176.91C184.35 181.84 186.9 198.6 189.41 215.97C204.05 213.94 215.73 212.85 217.79 215.97C219.06 216.21 226.94 224.98 228.21 225.22C227.74 200.96 230.18 196.03 230.4 186.12C230.83 167.97 223.88 150.17 217.16 138.26Z" id="aedBqEFL"></path><path d="M152.87 106.67C152.65 113.25 152.35 122.14 152.1 130.14C154.55 137.13 160.2 146.76 166.9 157.56C177.51 163.17 190.76 170.2 208.47 182.47C212.26 176.21 215.76 157 216.85 140.43" id="a1gjXdbOrh"></path><path d="M147.48 75.85C144.31 76.13 132.44 78.02 134.95 90.59C136.95 100.58 146.08 99.69 151.55 98.17" id="ctyPz0T1O"></path><path d="M212.87 214.47C213.12 212.36 217.96 215.92 220.87 216.25C227.91 217.03 230.94 217.25 230.94 217.25C228.09 226.02 231.26 236.62 234.53 244.17C235.93 247.5 237.55 250.74 239.38 253.85C238.82 254.14 236.56 255.25 231.18 257.61C228.08 258.99 227.42 261.31 226.52 263.63C211.63 251.55 206.58 221.13 212.87 214.47Z" id="d7tzG5xty"></path><path d="M108.72 217.95C115.29 215.77 133 212.76 138.4 225.22" id="e1r7VjJhc8"></path><path d="M108.72 233.21C108.72 233.21 210.88 206.97 217.49 216.99C219.04 220.45 231.45 248.2 233 251.67C233 251.67 226.81 262.9 226.26 267.59C226.26 267.59 224.62 274.26 213.64 279.9C202.67 285.55 145.32 318.49 104.22 324.95" id="ccKQaWS6d"></path><path d="M134.6 93.6C101.22 109.49 100.76 131.83 112.11 151.25C106.15 152.19 91.74 160.31 61.23 203.38C17.32 265.39 19.42 323.24 104.85 324.72" id="f3KiV5BDBu"></path><path d="M204.29 119.93C204.29 119.93 211.18 118.56 213.98 121.29" id="acwg95bQS"></path><path d="M213.07 87.96L215.63 110.25L207.77 108.24" id="g3rikK9jMf"></path><path d="M223.58 90.45C223.58 92.41 222.55 93.99 221.29 93.99C220.03 93.99 219.01 92.41 219.01 90.45C219.01 88.5 220.03 86.92 221.29 86.92C222.55 86.92 223.58 88.5 223.58 90.45Z" id="ag2oVFwgo"></path><path d="M201.59 90.07C201.59 92.02 200.57 93.6 199.31 93.6C198.05 93.6 197.03 92.02 197.03 90.07C197.03 88.11 198.05 86.53 199.31 86.53C200.57 86.53 201.59 88.11 201.59 90.07Z" id="c3S9ZoVOo8"></path><path d="M189.41 71.63C191.76 68.62 195.55 67.13 199.32 67.73" id="b94OWAdh7"></path><path d="M220.3 67.35C220.3 67.35 226.61 65.7 228.21 70.88" id="a648VQCDY"></path><path d="M278.03 45.43L283.54 67.59L314.81 58.34" id="dTfIYoeap"></path><path d="M88.31 169.43C99.59 164.8 138.41 199.51 165.92 191.64C153.13 190.28 125.72 170.19 113.17 148.21C106.27 151.26 96.32 157.18 88.31 169.43Z" id="aEvyXEY8Z"></path><path d="M240.82 38.16C234.61 39.6 222.47 41.95 221.37 39.5C219.83 36.05 241.73 26.87 248.4 23.92C251.82 22.42 263.66 19.18 270.03 18.25C278.35 17.05 308.6 16.28 312.79 43.28C313.09 44.39 314.58 49.95 317.26 59.97L287.52 68.79" id="a64DxNUfUX"></path><path d="M286.45 41.17C282.92 43.49 269.69 49.75 263.05 49.59" id="e50qSR7rWl"></path><path d="M251.94 27.53C251.94 27.53 237.67 37.28 239.15 42.99C240.63 48.7 245.09 46.78 245.09 46.78" id="a68uWdwkD"></path><path d="M257.04 33.97C257.04 33.97 245.08 43.73 246.98 49.3C246.98 49.3 253.19 52.62 253.19 52.62" id="a47vhHsTOS"></path><path d="M260.42 40.46C260.42 40.46 246.22 52.44 255.3 54.97C255.3 54.97 267.18 55.27 267.18 55.27C267.18 55.27 270.15 50.22 260.79 49.49" id="b3j6ElxABT"></path><path d="M328.15 61.74C324.95 57.36 322.41 59.85 320.99 57.27C317.59 51.06 316.25 48.33 316.25 48.33C309.21 54.29 298.18 55.38 289.98 55.21C286.36 55.18 282.75 54.91 279.16 54.4C279.11 55.03 278.94 57.54 278.79 63.41C278.72 66.81 276.82 68.3 275.01 70.02C280.99 77.94 321.48 71.97 328.15 61.74Z" id="ibA9PoPXE"></path><path d="M332.35 206.26C330.2 206.26 328.33 207.74 327.84 209.83C326.32 216.26 318.73 248.38 305.07 306.21C269.45 306.21 249.66 306.21 245.71 306.21C245.71 306.21 242.42 323.2 261.6 323.2C282.51 323.2 449.77 323.2 470.68 323.2C472.83 323.21 474.7 321.73 475.19 319.64C477.74 308.87 498.08 222.73 500.62 211.96C501.21 209.47 499.67 206.98 497.18 206.39C496.83 206.31 496.48 206.26 496.12 206.26C463.36 206.26 348.73 206.26 332.35 206.26Z" id="a1M7JXE0WI"></path></defs><g><g><g><use xlink:href="#b1y1tSP0XM" opacity="1" fill="#000000" fill-opacity="0"></use><g><use xlink:href="#b1y1tSP0XM" opacity="1" fill-opacity="0" stroke="#000000" stroke-width="6" stroke-opacity="1"></use></g></g><g><use xlink:href="#b3inUm36M" opacity="1" fill="#000000" fill-opacity="0"></use><g><use xlink:href="#b3inUm36M" opacity="1" fill-opacity="0" stroke="#000000" stroke-width="8" stroke-opacity="1"></use></g></g><g><use xlink:href="#c1ZYymjWI" opacity="1" fill="#000000" fill-opacity="0"></use><g><use xlink:href="#c1ZYymjWI" opacity="1" fill-opacity="0" stroke="#000000" stroke-width="8" stroke-opacity="1"></use></g></g><g><use xlink:href="#b2iybQfATz" opacity="1" fill="#000000" fill-opacity="0"></use><g><use xlink:href="#b2iybQfATz" opacity="1" fill-opacity="0" stroke="#000000" stroke-width="6" stroke-opacity="1"></use></g></g><g><use xlink:href="#hyuU9CGyy" opacity="1" fill="#000000" fill-opacity="1"></use><g><use xlink:href="#hyuU9CGyy" opacity="1" fill-opacity="0" stroke="#000000" stroke-width="1" stroke-opacity="0"></use></g></g><g><use xlink:href="#e2ZVORpW0E" opacity="1" fill="#000000" fill-opacity="0"></use><g><use xlink:href="#e2ZVORpW0E" opacity="1" fill-opacity="0" stroke="#000000" stroke-width="6" stroke-opacity="1"></use></g></g><g><use xlink:href="#a2LaCpmcIe" opacity="1" fill="#000000" fill-opacity="0"></use><g><use xlink:href="#a2LaCpmcIe" opacity="1" fill-opacity="0" stroke="#000000" stroke-width="6" stroke-opacity="1"></use></g></g><g><use xlink:href="#e2i1P41kW" opacity="1" fill="#000000" fill-opacity="0"></use><g><use xlink:href="#e2i1P41kW" opacity="1" fill-opacity="0" stroke="#000000" stroke-width="6" stroke-opacity="1"></use></g></g><g><use xlink:href="#e4a5C57wRu" opacity="1" fill="#000000" fill-opacity="1"></use><g><use xlink:href="#e4a5C57wRu" opacity="1" fill-opacity="0" stroke="#000000" stroke-width="1" stroke-opacity="0"></use></g></g><g><use xlink:href="#asatIeSd7" opacity="1" fill="#000000" fill-opacity="1"></use><g><use xlink:href="#asatIeSd7" opacity="1" fill-opacity="0" stroke="#000000" stroke-width="1" stroke-opacity="0"></use></g></g><g><use xlink:href="#a2XMhedfDU" opacity="1" fill="#000000" fill-opacity="0"></use><g><use xlink:href="#a2XMhedfDU" opacity="1" fill-opacity="0" stroke="#000000" stroke-width="6" stroke-opacity="1"></use></g></g><g><use xlink:href="#asPws4Qeo" opacity="1" fill="#000000" fill-opacity="0"></use><g><use xlink:href="#asPws4Qeo" opacity="1" fill-opacity="0" stroke="#000000" stroke-width="6" stroke-opacity="1"></use></g></g><g><use xlink:href="#j1IOjdqwJp" opacity="1" fill="#000000" fill-opacity="0"></use><g><use xlink:href="#j1IOjdqwJp" opacity="1" fill-opacity="0" stroke="#000000" stroke-width="6" stroke-opacity="1"></use></g></g><g><use xlink:href="#b1TrO9iGOQ" opacity="1" fill="#000000" fill-opacity="0"></use><g><use xlink:href="#b1TrO9iGOQ" opacity="1" fill-opacity="0" stroke="#000000" stroke-width="6" stroke-opacity="1"></use></g></g><g><use xlink:href="#d11hmIaBt8" opacity="1" fill="#000000" fill-opacity="0"></use><g><use xlink:href="#d11hmIaBt8" opacity="1" fill-opacity="0" stroke="#000000" stroke-width="6" stroke-opacity="1"></use></g></g><g><use xlink:href="#akv44Owbp" opacity="1" fill="#000000" fill-opacity="0"></use><g><use xlink:href="#akv44Owbp" opacity="1" fill-opacity="0" stroke="#000000" stroke-width="6" stroke-opacity="1"></use></g></g><g><use xlink:href="#aedBqEFL" opacity="1" fill="#000000" fill-opacity="1"></use><g><use xlink:href="#aedBqEFL" opacity="1" fill-opacity="0" stroke="#000000" stroke-width="1" stroke-opacity="0"></use></g></g><g><use xlink:href="#a1gjXdbOrh" opacity="1" fill="#000000" fill-opacity="0"></use><g><use xlink:href="#a1gjXdbOrh" opacity="1" fill-opacity="0" stroke="#000000" stroke-width="6" stroke-opacity="1"></use></g></g><g><use xlink:href="#ctyPz0T1O" opacity="1" fill="#000000" fill-opacity="0"></use><g><use xlink:href="#ctyPz0T1O" opacity="1" fill-opacity="0" stroke="#000000" stroke-width="6" stroke-opacity="1"></use></g></g><g><use xlink:href="#d7tzG5xty" opacity="1" fill="#000000" fill-opacity="1"></use><g><use xlink:href="#d7tzG5xty" opacity="1" fill-opacity="0" stroke="#000000" stroke-width="1" stroke-opacity="0"></use></g></g><g><use xlink:href="#e1r7VjJhc8" opacity="1" fill="#000000" fill-opacity="0"></use><g><use xlink:href="#e1r7VjJhc8" opacity="1" fill-opacity="0" stroke="#000000" stroke-width="6" stroke-opacity="1"></use></g></g><g><use xlink:href="#ccKQaWS6d" opacity="1" fill="#000000" fill-opacity="0"></use><g><use xlink:href="#ccKQaWS6d" opacity="1" fill-opacity="0" stroke="#000000" stroke-width="6" stroke-opacity="1"></use></g></g><g><use xlink:href="#f3KiV5BDBu" opacity="1" fill="#000000" fill-opacity="0"></use><g><use xlink:href="#f3KiV5BDBu" opacity="1" fill-opacity="0" stroke="#000000" stroke-width="6" stroke-opacity="1"></use></g></g><g><use xlink:href="#acwg95bQS" opacity="1" fill="#ffffff" fill-opacity="1"></use><g><use xlink:href="#acwg95bQS" opacity="1" fill-opacity="0" stroke="#000000" stroke-width="3" stroke-opacity="1"></use></g></g><g><use xlink:href="#g3rikK9jMf" opacity="1" fill="#000000" fill-opacity="0"></use><g><use xlink:href="#g3rikK9jMf" opacity="1" fill-opacity="0" stroke="#000000" stroke-width="6" stroke-opacity="1"></use></g></g><g><use xlink:href="#ag2oVFwgo" opacity="1" fill="#000000" fill-opacity="1"></use><g><use xlink:href="#ag2oVFwgo" opacity="1" fill-opacity="0" stroke="#000000" stroke-width="1" stroke-opacity="0"></use></g></g><g><use xlink:href="#c3S9ZoVOo8" opacity="1" fill="#000000" fill-opacity="1"></use><g><use xlink:href="#c3S9ZoVOo8" opacity="1" fill-opacity="0" stroke="#000000" stroke-width="1" stroke-opacity="0"></use></g></g><g><use xlink:href="#b94OWAdh7" opacity="1" fill="#000000" fill-opacity="0"></use><g><use xlink:href="#b94OWAdh7" opacity="1" fill-opacity="0" stroke="#000000" stroke-width="6" stroke-opacity="1"></use></g></g><g><use xlink:href="#a648VQCDY" opacity="1" fill="#000000" fill-opacity="0"></use><g><use xlink:href="#a648VQCDY" opacity="1" fill-opacity="0" stroke="#000000" stroke-width="6" stroke-opacity="1"></use></g></g><g><use xlink:href="#dTfIYoeap" opacity="1" fill="#000000" fill-opacity="0"></use><g><use xlink:href="#dTfIYoeap" opacity="1" fill-opacity="0" stroke="#000000" stroke-width="6" stroke-opacity="1"></use></g></g><g><use xlink:href="#aEvyXEY8Z" opacity="1" fill="#000000" fill-opacity="1"></use><g><use xlink:href="#aEvyXEY8Z" opacity="1" fill-opacity="0" stroke="#000000" stroke-width="1" stroke-opacity="0"></use></g></g><g><use xlink:href="#a64DxNUfUX" opacity="1" fill="#000000" fill-opacity="0"></use><g><use xlink:href="#a64DxNUfUX" opacity="1" fill-opacity="0" stroke="#000000" stroke-width="6" stroke-opacity="1"></use></g></g><g><use xlink:href="#e50qSR7rWl" opacity="1" fill="#000000" fill-opacity="0"></use><g><use xlink:href="#e50qSR7rWl" opacity="1" fill-opacity="0" stroke="#000000" stroke-width="6" stroke-opacity="1"></use></g></g><g><use xlink:href="#a68uWdwkD" opacity="1" fill="#000000" fill-opacity="0"></use><g><use xlink:href="#a68uWdwkD" opacity="1" fill-opacity="0" stroke="#000000" stroke-width="6" stroke-opacity="1"></use></g></g><g><use xlink:href="#a47vhHsTOS" opacity="1" fill="#000000" fill-opacity="0"></use><g><use xlink:href="#a47vhHsTOS" opacity="1" fill-opacity="0" stroke="#000000" stroke-width="6" stroke-opacity="1"></use></g></g><g><use xlink:href="#b3j6ElxABT" opacity="1" fill="#000000" fill-opacity="0"></use><g><use xlink:href="#b3j6ElxABT" opacity="1" fill-opacity="0" stroke="#000000" stroke-width="6" stroke-opacity="1"></use></g></g><g><use xlink:href="#ibA9PoPXE" opacity="1" fill="#000000" fill-opacity="1"></use><g><use xlink:href="#ibA9PoPXE" opacity="1" fill-opacity="0" stroke="#000000" stroke-width="1" stroke-opacity="0"></use></g></g><g><use xlink:href="#a1M7JXE0WI" opacity="1" fill="#000000" fill-opacity="1"></use><g><use xlink:href="#a1M7JXE0WI" opacity="1" fill-opacity="0" stroke="#000000" stroke-width="1" stroke-opacity="0"></use></g></g></g></g></svg>